<?xml version="1.0" encoding="UTF-8" standalone="no"?>
<!DOCTYPE svg PUBLIC "-//W3C//DTD SVG 1.1//EN"
 "http://www.w3.org/Graphics/SVG/1.1/DTD/svg11.dtd">
<!-- Generated by graphviz version 2.43.0 (0)
 -->
<!-- Title: RiskPaths_database_schema Pages: 1 -->
<svg width="1407pt" height="299pt"
 viewBox="0.00 0.00 1406.50 299.00" xmlns="http://www.w3.org/2000/svg" xmlns:xlink="http://www.w3.org/1999/xlink">
<g id="graph0" class="graph" transform="scale(1 1) rotate(0) translate(4 295)">
<title>RiskPaths_database_schema</title>
<polygon fill="white" stroke="transparent" points="-4,4 -4,-295 1402.5,-295 1402.5,4 -4,4"/>
<!-- entity_attr -->
<g id="node1" class="node">
<title>entity_attr</title>
<polygon fill="none" stroke="black" points="7.5,-152.5 7.5,-290.5 294.5,-290.5 294.5,-152.5 7.5,-152.5"/>
<text text-anchor="middle" x="151" y="-275.3" font-family="Times,serif" font-size="14.00">entity_attr</text>
<polyline fill="none" stroke="black" points="7.5,-267.5 294.5,-267.5 "/>
<text text-anchor="middle" x="151" y="-252.3" font-family="Times,serif" font-size="14.00">entity_hid INT NOT NULL</text>
<polyline fill="none" stroke="black" points="7.5,-244.5 294.5,-244.5 "/>
<text text-anchor="middle" x="151" y="-229.3" font-family="Times,serif" font-size="14.00">attr_id INT NOT NULL</text>
<polyline fill="none" stroke="black" points="7.5,-221.5 294.5,-221.5 "/>
<text text-anchor="middle" x="151" y="-206.3" font-family="Times,serif" font-size="14.00">attr_name VARCHAR(255) NOT NULL</text>
<polyline fill="none" stroke="black" points="7.5,-198.5 294.5,-198.5 "/>
<text text-anchor="middle" x="151" y="-183.3" font-family="Times,serif" font-size="14.00">type_hid INT NOT NULL</text>
<polyline fill="none" stroke="black" points="7.5,-175.5 294.5,-175.5 "/>
<text text-anchor="middle" x="151" y="-160.3" font-family="Times,serif" font-size="14.00">is_internal SMALLINT NOT NULL</text>
</g>
<!-- entity_dic -->
<g id="node3" class="node">
<title>entity_dic</title>
<polygon fill="none" stroke="black" points="0,-12 0,-104 302,-104 302,-12 0,-12"/>
<text text-anchor="middle" x="151" y="-88.8" font-family="Times,serif" font-size="14.00">entity_dic</text>
<polyline fill="none" stroke="black" points="0,-81 302,-81 "/>
<text text-anchor="middle" x="151" y="-65.8" font-family="Times,serif" font-size="14.00">entity_hid INT NOT NULL</text>
<polyline fill="none" stroke="black" points="0,-58 302,-58 "/>
<text text-anchor="middle" x="151" y="-42.8" font-family="Times,serif" font-size="14.00">entity_name VARCHAR(255) NOT NULL</text>
<polyline fill="none" stroke="black" points="0,-35 302,-35 "/>
<text text-anchor="middle" x="151" y="-19.8" font-family="Times,serif" font-size="14.00">entity_digest VARCHAR(32) NOT NULL</text>
</g>
<!-- entity_attr&#45;&gt;entity_dic -->
<g id="edge1" class="edge">
<title>entity_attr:c2&#45;&gt;entity_dic:c3</title>
<path fill="none" stroke="black" d="M296,-233.5C302.16,-233.5 306.34,-16.37 302,-12 292.16,-2.1 194.16,3.63 161.52,-4.38"/>
<polygon fill="black" stroke="black" points="161.16,-4.61 158.21,-11.19 151,-11 153.95,-4.42 161.16,-4.61"/>
</g>
<!-- entity_attr_txt -->
<g id="node2" class="node">
<title>entity_attr_txt</title>
<polygon fill="none" stroke="black" points="312.5,-152.5 312.5,-290.5 565.5,-290.5 565.5,-152.5 312.5,-152.5"/>
<text text-anchor="middle" x="439" y="-275.3" font-family="Times,serif" font-size="14.00">entity_attr_txt</text>
<polyline fill="none" stroke="black" points="312.5,-267.5 565.5,-267.5 "/>
<text text-anchor="middle" x="439" y="-252.3" font-family="Times,serif" font-size="14.00">entity_hid INT NOT NULL</text>
<polyline fill="none" stroke="black" points="312.5,-244.5 565.5,-244.5 "/>
<text text-anchor="middle" x="439" y="-229.3" font-family="Times,serif" font-size="14.00">attr_id INT NOT NULL</text>
<polyline fill="none" stroke="black" points="312.5,-221.5 565.5,-221.5 "/>
<text text-anchor="middle" x="439" y="-206.3" font-family="Times,serif" font-size="14.00">lang_id INT NOT NULL</text>
<polyline fill="none" stroke="black" points="312.5,-198.5 565.5,-198.5 "/>
<text text-anchor="middle" x="439" y="-183.3" font-family="Times,serif" font-size="14.00">descr VARCHAR(255) NOT NULL</text>
<polyline fill="none" stroke="black" points="312.5,-175.5 565.5,-175.5 "/>
<text text-anchor="middle" x="439" y="-160.3" font-family="Times,serif" font-size="14.00">note VARCHAR(32000)</text>
</g>
<!-- entity_dic_txt -->
<g id="node4" class="node">
<title>entity_dic_txt</title>
<polygon fill="none" stroke="black" points="583.5,-164 583.5,-279 836.5,-279 836.5,-164 583.5,-164"/>
<text text-anchor="middle" x="710" y="-263.8" font-family="Times,serif" font-size="14.00">entity_dic_txt</text>
<polyline fill="none" stroke="black" points="583.5,-256 836.5,-256 "/>
<text text-anchor="middle" x="710" y="-240.8" font-family="Times,serif" font-size="14.00">entity_hid INT NOT NULL</text>
<polyline fill="none" stroke="black" points="583.5,-233 836.5,-233 "/>
<text text-anchor="middle" x="710" y="-217.8" font-family="Times,serif" font-size="14.00">lang_id INT NOT NULL</text>
<polyline fill="none" stroke="black" points="583.5,-210 836.5,-210 "/>
<text text-anchor="middle" x="710" y="-194.8" font-family="Times,serif" font-size="14.00">descr VARCHAR(255) NOT NULL</text>
<polyline fill="none" stroke="black" points="583.5,-187 836.5,-187 "/>
<text text-anchor="middle" x="710" y="-171.8" font-family="Times,serif" font-size="14.00">note VARCHAR(32000)</text>
</g>
<!-- type_dic -->
<g id="node5" class="node">
<title>type_dic</title>
<polygon fill="none" stroke="black" points="854.5,-152.5 854.5,-290.5 1145.5,-290.5 1145.5,-152.5 854.5,-152.5"/>
<text text-anchor="middle" x="1000" y="-275.3" font-family="Times,serif" font-size="14.00">type_dic</text>
<polyline fill="none" stroke="black" points="854.5,-267.5 1145.5,-267.5 "/>
<text text-anchor="middle" x="1000" y="-252.3" font-family="Times,serif" font-size="14.00">type_hid INT NOT NULL</text>
<polyline fill="none" stroke="black" points="854.5,-244.5 1145.5,-244.5 "/>
<text text-anchor="middle" x="1000" y="-229.3" font-family="Times,serif" font-size="14.00">type_name VARCHAR(255) NOT NULL</text>
<polyline fill="none" stroke="black" points="854.5,-221.5 1145.5,-221.5 "/>
<text text-anchor="middle" x="1000" y="-206.3" font-family="Times,serif" font-size="14.00">type_digest VARCHAR(32) NOT NULL</text>
<polyline fill="none" stroke="black" points="854.5,-198.5 1145.5,-198.5 "/>
<text text-anchor="middle" x="1000" y="-183.3" font-family="Times,serif" font-size="14.00">dic_id INT NOT NULL</text>
<polyline fill="none" stroke="black" points="854.5,-175.5 1145.5,-175.5 "/>
<text text-anchor="middle" x="1000" y="-160.3" font-family="Times,serif" font-size="14.00">total_enum_id INT NOT NULL</text>
</g>
<!-- entity_gen -->
<g id="node6" class="node">
<title>entity_gen</title>
<polygon fill="none" stroke="black" points="843,-0.5 843,-115.5 1157,-115.5 1157,-0.5 843,-0.5"/>
<text text-anchor="middle" x="1000" y="-100.3" font-family="Times,serif" font-size="14.00">entity_gen</text>
<polyline fill="none" stroke="black" points="843,-92.5 1157,-92.5 "/>
<text text-anchor="middle" x="1000" y="-77.3" font-family="Times,serif" font-size="14.00">entity_gen_hid INT NOT NULL</text>
<polyline fill="none" stroke="black" points="843,-69.5 1157,-69.5 "/>
<text text-anchor="middle" x="1000" y="-54.3" font-family="Times,serif" font-size="14.00">entity_hid INT NOT NULL</text>
<polyline fill="none" stroke="black" points="843,-46.5 1157,-46.5 "/>
<text text-anchor="middle" x="1000" y="-31.3" font-family="Times,serif" font-size="14.00">db_entity_table VARCHAR(64) NOT NULL</text>
<polyline fill="none" stroke="black" points="843,-23.5 1157,-23.5 "/>
<text text-anchor="middle" x="1000" y="-8.3" font-family="Times,serif" font-size="14.00">gen_digest VARCHAR(32) NOT NULL</text>
</g>
<!-- type_dic&#45;&gt;entity_gen -->
<g id="edge2" class="edge">
<title>type_dic:c1&#45;&gt;entity_gen:c2</title>
<path fill="none" stroke="black" d="M1147,-256.5C1148.96,-256.5 1156.91,-117.95 1157,-116 1157.92,-95.07 1175.03,-69.86 1167.58,-61.15"/>
<polygon fill="black" stroke="black" points="1168.59,-57.79 1158,-58 1166.41,-64.45 1168.59,-57.79"/>
</g>
<!-- entity_gen&#45;&gt;type_dic -->
<g id="edge3" class="edge">
<title>entity_gen:c2&#45;&gt;type_dic:c4</title>
<path fill="none" stroke="black" d="M1158,-58C1163.96,-58 1157.35,-146.96 1150.83,-176.84"/>
<polygon fill="black" stroke="black" points="1147.43,-175.91 1147,-186.5 1153.94,-178.49 1147.43,-175.91"/>
</g>
<!-- entity_gen_attr -->
<g id="node7" class="node">
<title>entity_gen_attr</title>
<polygon fill="none" stroke="black" points="1163.5,-175.5 1163.5,-267.5 1398.5,-267.5 1398.5,-175.5 1163.5,-175.5"/>
<text text-anchor="middle" x="1281" y="-252.3" font-family="Times,serif" font-size="14.00">entity_gen_attr</text>
<polyline fill="none" stroke="black" points="1163.5,-244.5 1398.5,-244.5 "/>
<text text-anchor="middle" x="1281" y="-229.3" font-family="Times,serif" font-size="14.00">entity_gen_hid INT NOT NULL</text>
<polyline fill="none" stroke="black" points="1163.5,-221.5 1398.5,-221.5 "/>
<text text-anchor="middle" x="1281" y="-206.3" font-family="Times,serif" font-size="14.00">attr_id INT NOT NULL</text>
<polyline fill="none" stroke="black" points="1163.5,-198.5 1398.5,-198.5 "/>
<text text-anchor="middle" x="1281" y="-183.3" font-family="Times,serif" font-size="14.00">entity_hid INT NOT NULL</text>
</g>
</g>
</svg>
