<?xml version="1.0" encoding="UTF-8" standalone="no"?>
<!DOCTYPE svg PUBLIC "-//W3C//DTD SVG 1.1//EN"
 "http://www.w3.org/Graphics/SVG/1.1/DTD/svg11.dtd">
<!-- Generated by graphviz version 2.43.0 (0)
 -->
<!-- Title: RiskPaths_database_schema Pages: 1 -->
<svg width="1000pt" height="750pt"
 viewBox="0.00 0.00 999.60 750.00" xmlns="http://www.w3.org/2000/svg" xmlns:xlink="http://www.w3.org/1999/xlink">
<g id="graph0" class="graph" transform="scale(1 1) rotate(0) translate(4 746)">
<title>RiskPaths_database_schema</title>
<polygon fill="white" stroke="transparent" points="-4,4 -4,-746 995.6,-746 995.6,4 -4,4"/>
<!-- table_dic -->
<g id="node1" class="node">
<title>table_dic</title>
<polygon fill="none" stroke="black" points="100.45,-256 100.45,-509 417.45,-509 417.45,-256 100.45,-256"/>
<text text-anchor="middle" x="258.95" y="-493.8" font-family="Times,serif" font-size="14.00">table_dic</text>
<polyline fill="none" stroke="black" points="100.45,-486 417.45,-486 "/>
<text text-anchor="middle" x="258.95" y="-470.8" font-family="Times,serif" font-size="14.00">table_hid INT</text>
<polyline fill="none" stroke="black" points="100.45,-463 417.45,-463 "/>
<text text-anchor="middle" x="258.95" y="-447.8" font-family="Times,serif" font-size="14.00">NOT NULL</text>
<polyline fill="none" stroke="black" points="100.45,-440 417.45,-440 "/>
<text text-anchor="middle" x="258.95" y="-424.8" font-family="Times,serif" font-size="14.00">table_name VARCHAR(255) NOT NULL</text>
<polyline fill="none" stroke="black" points="100.45,-417 417.45,-417 "/>
<text text-anchor="middle" x="258.95" y="-401.8" font-family="Times,serif" font-size="14.00">table_digest VARCHAR(32) NOT NULL</text>
<polyline fill="none" stroke="black" points="100.45,-394 417.45,-394 "/>
<text text-anchor="middle" x="258.95" y="-378.8" font-family="Times,serif" font-size="14.00">table_rank INT NOT NULL</text>
<polyline fill="none" stroke="black" points="100.45,-371 417.45,-371 "/>
<text text-anchor="middle" x="258.95" y="-355.8" font-family="Times,serif" font-size="14.00">is_sparse SMALLINT NOT NULL</text>
<polyline fill="none" stroke="black" points="100.45,-348 417.45,-348 "/>
<text text-anchor="middle" x="258.95" y="-332.8" font-family="Times,serif" font-size="14.00">db_expr_table VARCHAR(64) NOT NULL</text>
<polyline fill="none" stroke="black" points="100.45,-325 417.45,-325 "/>
<text text-anchor="middle" x="258.95" y="-309.8" font-family="Times,serif" font-size="14.00">db_acc_table VARCHAR(64) NOT NULL</text>
<polyline fill="none" stroke="black" points="100.45,-302 417.45,-302 "/>
<text text-anchor="middle" x="258.95" y="-286.8" font-family="Times,serif" font-size="14.00">db_acc_all_view VARCHAR(64) NOT NULL</text>
<polyline fill="none" stroke="black" points="100.45,-279 417.45,-279 "/>
<text text-anchor="middle" x="258.95" y="-263.8" font-family="Times,serif" font-size="14.00">import_digest VARCHAR(32) NOT NULL</text>
</g>
<!-- model_table_dic -->
<g id="node2" class="node">
<title>model_table_dic</title>
<polygon fill="none" stroke="black" points="25.95,-580.5 25.95,-741.5 275.95,-741.5 275.95,-580.5 25.95,-580.5"/>
<text text-anchor="middle" x="150.95" y="-726.3" font-family="Times,serif" font-size="14.00">model_table_dic</text>
<polyline fill="none" stroke="black" points="25.95,-718.5 275.95,-718.5 "/>
<text text-anchor="middle" x="150.95" y="-703.3" font-family="Times,serif" font-size="14.00">model_id INT NOT NULL</text>
<polyline fill="none" stroke="black" points="25.95,-695.5 275.95,-695.5 "/>
<text text-anchor="middle" x="150.95" y="-680.3" font-family="Times,serif" font-size="14.00">model_table_id INT NOT NULL</text>
<polyline fill="none" stroke="black" points="25.95,-672.5 275.95,-672.5 "/>
<text text-anchor="middle" x="150.95" y="-657.3" font-family="Times,serif" font-size="14.00">table_hid INT NOT NULL</text>
<polyline fill="none" stroke="black" points="25.95,-649.5 275.95,-649.5 "/>
<text text-anchor="middle" x="150.95" y="-634.3" font-family="Times,serif" font-size="14.00">is_user SMALLINT NOT NULL</text>
<polyline fill="none" stroke="black" points="25.95,-626.5 275.95,-626.5 "/>
<text text-anchor="middle" x="150.95" y="-611.3" font-family="Times,serif" font-size="14.00">expr_dim_pos INT NOT NULL</text>
<polyline fill="none" stroke="black" points="25.95,-603.5 275.95,-603.5 "/>
<text text-anchor="middle" x="150.95" y="-588.3" font-family="Times,serif" font-size="14.00">is_hidden SMALLINT NOT NULL</text>
</g>
<!-- model_table_dic&#45;&gt;table_dic -->
<g id="edge2" class="edge">
<title>model_table_dic:c3&#45;&gt;table_dic:c1</title>
<path fill="none" stroke="black" d="M276.95,-661C312.96,-661 296.31,-609.69 275.95,-580 228.3,-510.5 148.17,-578.61 99.95,-509.5 93.83,-500.73 88.3,-487.47 90.5,-480.05"/>
<polygon fill="black" stroke="black" points="92.51,-482.91 98.95,-474.5 88.67,-477.06 92.51,-482.91"/>
</g>
<!-- model_dic -->
<g id="node3" class="node">
<title>model_dic</title>
<polygon fill="none" stroke="black" points="426.45,-0.5 426.45,-184.5 729.45,-184.5 729.45,-0.5 426.45,-0.5"/>
<text text-anchor="middle" x="577.95" y="-169.3" font-family="Times,serif" font-size="14.00">model_dic</text>
<polyline fill="none" stroke="black" points="426.45,-161.5 729.45,-161.5 "/>
<text text-anchor="middle" x="577.95" y="-146.3" font-family="Times,serif" font-size="14.00">model_id INT NOT NULL</text>
<polyline fill="none" stroke="black" points="426.45,-138.5 729.45,-138.5 "/>
<text text-anchor="middle" x="577.95" y="-123.3" font-family="Times,serif" font-size="14.00">model_name VARCHAR(255) NOT NULL</text>
<polyline fill="none" stroke="black" points="426.45,-115.5 729.45,-115.5 "/>
<text text-anchor="middle" x="577.95" y="-100.3" font-family="Times,serif" font-size="14.00">model_digest VARCHAR(32) NOT NULL</text>
<polyline fill="none" stroke="black" points="426.45,-92.5 729.45,-92.5 "/>
<text text-anchor="middle" x="577.95" y="-77.3" font-family="Times,serif" font-size="14.00">model_type INT NOT NULL</text>
<polyline fill="none" stroke="black" points="426.45,-69.5 729.45,-69.5 "/>
<text text-anchor="middle" x="577.95" y="-54.3" font-family="Times,serif" font-size="14.00">model_ver VARCHAR(32) NOT NULL</text>
<polyline fill="none" stroke="black" points="426.45,-46.5 729.45,-46.5 "/>
<text text-anchor="middle" x="577.95" y="-31.3" font-family="Times,serif" font-size="14.00">create_dt VARCHAR(32) NOT NULL</text>
<polyline fill="none" stroke="black" points="426.45,-23.5 729.45,-23.5 "/>
<text text-anchor="middle" x="577.95" y="-8.3" font-family="Times,serif" font-size="14.00">default_lang_id INT NOT NULL</text>
</g>
<!-- model_table_dic&#45;&gt;model_dic -->
<g id="edge1" class="edge">
<title>model_table_dic:c1&#45;&gt;model_dic:c1</title>
<path fill="none" stroke="black" d="M24.95,-707C-18.15,-707 -10.57,-325.5 90.95,-221 141.59,-168.88 332.12,-151.92 414.73,-150.59"/>
<polygon fill="black" stroke="black" points="414.98,-154.08 424.95,-150.5 414.92,-147.09 414.98,-154.08"/>
</g>
<!-- run_lst -->
<g id="node4" class="node">
<title>run_lst</title>
<polygon fill="none" stroke="black" points="435.95,-221.5 435.95,-543.5 719.95,-543.5 719.95,-221.5 435.95,-221.5"/>
<text text-anchor="middle" x="577.95" y="-528.3" font-family="Times,serif" font-size="14.00">run_lst</text>
<polyline fill="none" stroke="black" points="435.95,-520.5 719.95,-520.5 "/>
<text text-anchor="middle" x="577.95" y="-505.3" font-family="Times,serif" font-size="14.00">run_id INT NOT NULL</text>
<polyline fill="none" stroke="black" points="435.95,-497.5 719.95,-497.5 "/>
<text text-anchor="middle" x="577.95" y="-482.3" font-family="Times,serif" font-size="14.00">model_id INT NOT NULL</text>
<polyline fill="none" stroke="black" points="435.95,-474.5 719.95,-474.5 "/>
<text text-anchor="middle" x="577.95" y="-459.3" font-family="Times,serif" font-size="14.00">run_name VARCHAR(255) NOT NULL</text>
<polyline fill="none" stroke="black" points="435.95,-451.5 719.95,-451.5 "/>
<text text-anchor="middle" x="577.95" y="-436.3" font-family="Times,serif" font-size="14.00">sub_count INT NOT NULL</text>
<polyline fill="none" stroke="black" points="435.95,-428.5 719.95,-428.5 "/>
<text text-anchor="middle" x="577.95" y="-413.3" font-family="Times,serif" font-size="14.00">sub_started INT NOT NULL</text>
<polyline fill="none" stroke="black" points="435.95,-405.5 719.95,-405.5 "/>
<text text-anchor="middle" x="577.95" y="-390.3" font-family="Times,serif" font-size="14.00">sub_completed INT NOT NULL</text>
<polyline fill="none" stroke="black" points="435.95,-382.5 719.95,-382.5 "/>
<text text-anchor="middle" x="577.95" y="-367.3" font-family="Times,serif" font-size="14.00">sub_restart INT NOT NULL</text>
<polyline fill="none" stroke="black" points="435.95,-359.5 719.95,-359.5 "/>
<text text-anchor="middle" x="577.95" y="-344.3" font-family="Times,serif" font-size="14.00">create_dt VARCHAR(32) NOT NULL</text>
<polyline fill="none" stroke="black" points="435.95,-336.5 719.95,-336.5 "/>
<text text-anchor="middle" x="577.95" y="-321.3" font-family="Times,serif" font-size="14.00">status VARCHAR(1) NOT NULL</text>
<polyline fill="none" stroke="black" points="435.95,-313.5 719.95,-313.5 "/>
<text text-anchor="middle" x="577.95" y="-298.3" font-family="Times,serif" font-size="14.00">update_dt VARCHAR(32) NOT NULL</text>
<polyline fill="none" stroke="black" points="435.95,-290.5 719.95,-290.5 "/>
<text text-anchor="middle" x="577.95" y="-275.3" font-family="Times,serif" font-size="14.00">run_digest VARCHAR(32) NOT NULL</text>
<polyline fill="none" stroke="black" points="435.95,-267.5 719.95,-267.5 "/>
<text text-anchor="middle" x="577.95" y="-252.3" font-family="Times,serif" font-size="14.00">value_digest VARCHAR(32)</text>
<polyline fill="none" stroke="black" points="435.95,-244.5 719.95,-244.5 "/>
<text text-anchor="middle" x="577.95" y="-229.3" font-family="Times,serif" font-size="14.00">run_stamp VARCHAR(32) NOT NULL</text>
</g>
<!-- run_lst&#45;&gt;model_dic -->
<g id="edge5" class="edge">
<title>run_lst:c2&#45;&gt;model_dic:c1</title>
<path fill="none" stroke="black" d="M720.95,-486.5C725.14,-486.5 733.61,-216.46 731.95,-160.56"/>
<polygon fill="black" stroke="black" points="735.43,-160.1 730.95,-150.5 728.46,-160.8 735.43,-160.1"/>
</g>
<!-- run_table -->
<g id="node5" class="node">
<title>run_table</title>
<polygon fill="none" stroke="black" points="334.45,-603.5 334.45,-718.5 549.45,-718.5 549.45,-603.5 334.45,-603.5"/>
<text text-anchor="middle" x="441.95" y="-703.3" font-family="Times,serif" font-size="14.00">run_table</text>
<polyline fill="none" stroke="black" points="334.45,-695.5 549.45,-695.5 "/>
<text text-anchor="middle" x="441.95" y="-680.3" font-family="Times,serif" font-size="14.00">run_id INT NOT NULL</text>
<polyline fill="none" stroke="black" points="334.45,-672.5 549.45,-672.5 "/>
<text text-anchor="middle" x="441.95" y="-657.3" font-family="Times,serif" font-size="14.00">table_hid INT NOT NULL</text>
<polyline fill="none" stroke="black" points="334.45,-649.5 549.45,-649.5 "/>
<text text-anchor="middle" x="441.95" y="-634.3" font-family="Times,serif" font-size="14.00">base_run_id INT NOT NULL</text>
<polyline fill="none" stroke="black" points="334.45,-626.5 549.45,-626.5 "/>
<text text-anchor="middle" x="441.95" y="-611.3" font-family="Times,serif" font-size="14.00">value_digest VARCHAR(32)</text>
</g>
<!-- run_table&#45;&gt;table_dic -->
<g id="edge3" class="edge">
<title>run_table:c2&#45;&gt;table_dic:c1</title>
<path fill="none" stroke="black" d="M332.95,-661C307.17,-661 324.52,-626.99 333.95,-603 354.39,-551.01 397.22,-561.37 417.95,-509.5 419.74,-505.04 422.66,-492.75 422.81,-484"/>
<polygon fill="black" stroke="black" points="425.96,-482.45 418.95,-474.5 419.48,-485.08 425.96,-482.45"/>
</g>
<!-- run_table&#45;&gt;run_lst -->
<g id="edge4" class="edge">
<title>run_table:c1&#45;&gt;run_lst:c1</title>
<path fill="none" stroke="black" d="M550.95,-684C586.96,-684 568.86,-633.64 549.95,-603 520,-554.45 466.31,-592.3 435.95,-544 430.41,-535.17 424.85,-522.41 426.68,-515.13"/>
<polygon fill="black" stroke="black" points="428.66,-518.02 434.95,-509.5 424.72,-512.23 428.66,-518.02"/>
</g>
<!-- workset_lst -->
<g id="node6" class="node">
<title>workset_lst</title>
<polygon fill="none" stroke="black" points="587.45,-580.5 587.45,-741.5 868.45,-741.5 868.45,-580.5 587.45,-580.5"/>
<text text-anchor="middle" x="727.95" y="-726.3" font-family="Times,serif" font-size="14.00">workset_lst</text>
<polyline fill="none" stroke="black" points="587.45,-718.5 868.45,-718.5 "/>
<text text-anchor="middle" x="727.95" y="-703.3" font-family="Times,serif" font-size="14.00">set_id INT NOT NULL</text>
<polyline fill="none" stroke="black" points="587.45,-695.5 868.45,-695.5 "/>
<text text-anchor="middle" x="727.95" y="-680.3" font-family="Times,serif" font-size="14.00">base_run_id INT</text>
<polyline fill="none" stroke="black" points="587.45,-672.5 868.45,-672.5 "/>
<text text-anchor="middle" x="727.95" y="-657.3" font-family="Times,serif" font-size="14.00">model_id INT NOT NULL</text>
<polyline fill="none" stroke="black" points="587.45,-649.5 868.45,-649.5 "/>
<text text-anchor="middle" x="727.95" y="-634.3" font-family="Times,serif" font-size="14.00">set_name VARCHAR(255) NOT NULL</text>
<polyline fill="none" stroke="black" points="587.45,-626.5 868.45,-626.5 "/>
<text text-anchor="middle" x="727.95" y="-611.3" font-family="Times,serif" font-size="14.00">is_readonly SMALLINT NOT NULL</text>
<polyline fill="none" stroke="black" points="587.45,-603.5 868.45,-603.5 "/>
<text text-anchor="middle" x="727.95" y="-588.3" font-family="Times,serif" font-size="14.00">update_dt VARCHAR(32) NOT NULL</text>
</g>
<!-- workset_lst&#45;&gt;model_dic -->
<g id="edge6" class="edge">
<title>workset_lst:c2&#45;&gt;model_dic:c1</title>
<path fill="none" stroke="black" d="M869.95,-661C1101.66,-661 970.09,-165.35 741.22,-150.83"/>
<polygon fill="black" stroke="black" points="741.06,-147.32 730.95,-150.5 740.84,-154.32 741.06,-147.32"/>
</g>
<!-- workset_lst&#45;&gt;run_lst -->
<g id="edge7" class="edge">
<title>workset_lst:c1&#45;&gt;run_lst:c1</title>
<path fill="none" stroke="black" d="M585.95,-684C539.73,-684 558.68,-616.57 586.95,-580 624.4,-531.55 682.04,-592.09 719.95,-544 726.48,-535.72 731.76,-522.52 729.43,-515.08"/>
<polygon fill="black" stroke="black" points="731.23,-512.07 720.95,-509.5 727.39,-517.92 731.23,-512.07"/>
</g>
</g>
</svg>
