<?xml version="1.0" encoding="UTF-8" standalone="no"?>
<!DOCTYPE svg PUBLIC "-//W3C//DTD SVG 1.1//EN"
 "http://www.w3.org/Graphics/SVG/1.1/DTD/svg11.dtd">
<!-- Generated by graphviz version 2.43.0 (0)
 -->
<!-- Title: alt_database_schema_diagram Pages: 1 -->
<svg width="666pt" height="576pt"
 viewBox="0.00 0.00 665.85 576.00" xmlns="http://www.w3.org/2000/svg" xmlns:xlink="http://www.w3.org/1999/xlink">
<g id="graph0" class="graph" transform="scale(1 1) rotate(0) translate(4 572)">
<title>alt_database_schema_diagram</title>
<polygon fill="white" stroke="transparent" points="-4,4 -4,-572 661.85,-572 661.85,4 -4,4"/>
<!-- entity_attr -->
<g id="node1" class="node">
<title>entity_attr</title>
<ellipse fill="none" stroke="black" cx="252" cy="-53.99" rx="59.59" ry="18"/>
<text text-anchor="middle" x="252" y="-50.29" font-family="Times,serif" font-size="14.00">entity_attr</text>
</g>
<!-- entity_dic -->
<g id="node3" class="node">
<title>entity_dic</title>
<ellipse fill="none" stroke="black" cx="317.64" cy="-92.5" rx="55.79" ry="18"/>
<text text-anchor="middle" x="317.64" y="-88.8" font-family="Times,serif" font-size="14.00">entity_dic</text>
</g>
<!-- entity_attr&#45;&gt;entity_dic -->
<g id="edge1" class="edge">
<title>entity_attr&#45;&gt;entity_dic</title>
<path fill="none" stroke="black" d="M279.45,-70.1C280.25,-70.57 281.06,-71.04 281.86,-71.51"/>
<polygon fill="black" stroke="black" points="280.11,-74.54 290.5,-76.58 283.65,-68.5 280.11,-74.54"/>
</g>
<!-- type_dic -->
<g id="node49" class="node">
<title>type_dic</title>
<ellipse fill="none" stroke="black" cx="225.88" cy="-119.67" rx="49.29" ry="18"/>
<text text-anchor="middle" x="225.88" y="-115.97" font-family="Times,serif" font-size="14.00">type_dic</text>
</g>
<!-- entity_attr&#45;&gt;type_dic -->
<g id="edge2" class="edge">
<title>entity_attr&#45;&gt;type_dic</title>
<path fill="none" stroke="black" d="M244.86,-71.94C242.38,-78.16 239.55,-85.3 236.83,-92.12"/>
<polygon fill="black" stroke="black" points="233.45,-91.16 233.01,-101.74 239.95,-93.75 233.45,-91.16"/>
</g>
<!-- entity_attr_txt -->
<g id="node2" class="node">
<title>entity_attr_txt</title>
<ellipse fill="none" stroke="black" cx="180.56" cy="-116.79" rx="77.19" ry="18"/>
<text text-anchor="middle" x="180.56" y="-113.09" font-family="Times,serif" font-size="14.00">entity_attr_txt</text>
</g>
<!-- entity_attr_txt&#45;&gt;entity_attr -->
<g id="edge3" class="edge">
<title>entity_attr_txt&#45;&gt;entity_attr</title>
<path fill="none" stroke="black" d="M200.46,-99.29C207.89,-92.76 216.47,-85.22 224.46,-78.19"/>
<polygon fill="black" stroke="black" points="227,-80.62 232.2,-71.39 222.38,-75.36 227,-80.62"/>
</g>
<!-- lang_lst -->
<g id="node11" class="node">
<title>lang_lst</title>
<ellipse fill="none" stroke="black" cx="190.89" cy="-223.5" rx="46.59" ry="18"/>
<text text-anchor="middle" x="190.89" y="-219.8" font-family="Times,serif" font-size="14.00">lang_lst</text>
</g>
<!-- entity_attr_txt&#45;&gt;lang_lst -->
<g id="edge4" class="edge">
<title>entity_attr_txt&#45;&gt;lang_lst</title>
<path fill="none" stroke="black" d="M182.31,-134.89C183.92,-151.45 186.31,-176.2 188.17,-195.34"/>
<polygon fill="black" stroke="black" points="184.68,-195.7 189.13,-205.31 191.65,-195.02 184.68,-195.7"/>
</g>
<!-- entity_dic_txt -->
<g id="node4" class="node">
<title>entity_dic_txt</title>
<ellipse fill="none" stroke="black" cx="229.83" cy="-138.31" rx="73.39" ry="18"/>
<text text-anchor="middle" x="229.83" y="-134.61" font-family="Times,serif" font-size="14.00">entity_dic_txt</text>
</g>
<!-- entity_dic_txt&#45;&gt;entity_dic -->
<g id="edge5" class="edge">
<title>entity_dic_txt&#45;&gt;entity_dic</title>
<path fill="none" stroke="black" d="M261.53,-121.77C267.2,-118.81 273.17,-115.7 279.02,-112.65"/>
<polygon fill="black" stroke="black" points="280.79,-115.67 288.03,-107.94 277.55,-109.47 280.79,-115.67"/>
</g>
<!-- entity_dic_txt&#45;&gt;lang_lst -->
<g id="edge6" class="edge">
<title>entity_dic_txt&#45;&gt;lang_lst</title>
<path fill="none" stroke="black" d="M221.57,-156.38C216.27,-167.97 209.29,-183.25 203.32,-196.31"/>
<polygon fill="black" stroke="black" points="199.98,-195.2 199,-205.75 206.34,-198.11 199.98,-195.2"/>
</g>
<!-- entity_gen -->
<g id="node5" class="node">
<title>entity_gen</title>
<ellipse fill="none" stroke="black" cx="397.97" cy="-92.63" rx="59.59" ry="18"/>
<text text-anchor="middle" x="397.97" y="-88.93" font-family="Times,serif" font-size="14.00">entity_gen</text>
</g>
<!-- entity_gen&#45;&gt;entity_dic -->
<g id="edge7" class="edge">
<title>entity_gen&#45;&gt;entity_dic</title>
<path fill="none" stroke="black" d="M337.91,-92.53C337.87,-92.53 337.82,-92.53 337.77,-92.53"/>
<polygon fill="black" stroke="black" points="347.65,-89.06 337.64,-92.53 347.63,-96.06 347.65,-89.06"/>
</g>
<!-- entity_gen_attr -->
<g id="node6" class="node">
<title>entity_gen_attr</title>
<ellipse fill="none" stroke="black" cx="336.1" cy="-18" rx="81.49" ry="18"/>
<text text-anchor="middle" x="336.1" y="-14.3" font-family="Times,serif" font-size="14.00">entity_gen_attr</text>
</g>
<!-- entity_gen_attr&#45;&gt;entity_attr -->
<g id="edge9" class="edge">
<title>entity_gen_attr&#45;&gt;entity_attr</title>
<path fill="none" stroke="black" d="M298.47,-34.1C297.61,-34.47 296.75,-34.84 295.88,-35.21"/>
<polygon fill="black" stroke="black" points="294.46,-32.01 286.65,-39.16 297.22,-38.44 294.46,-32.01"/>
</g>
<!-- entity_gen_attr&#45;&gt;entity_gen -->
<g id="edge8" class="edge">
<title>entity_gen_attr&#45;&gt;entity_gen</title>
<path fill="none" stroke="black" d="M351.07,-36.07C358.81,-45.39 368.37,-56.93 376.84,-67.14"/>
<polygon fill="black" stroke="black" points="374.27,-69.52 383.34,-74.99 379.66,-65.06 374.27,-69.52"/>
</g>
<!-- group_lst -->
<g id="node7" class="node">
<title>group_lst</title>
<ellipse fill="none" stroke="black" cx="360.34" cy="-213.28" rx="53.89" ry="18"/>
<text text-anchor="middle" x="360.34" y="-209.58" font-family="Times,serif" font-size="14.00">group_lst</text>
</g>
<!-- model_dic -->
<g id="node13" class="node">
<title>model_dic</title>
<ellipse fill="none" stroke="black" cx="287.69" cy="-263.38" rx="57.39" ry="18"/>
<text text-anchor="middle" x="287.69" y="-259.68" font-family="Times,serif" font-size="14.00">model_dic</text>
</g>
<!-- group_lst&#45;&gt;model_dic -->
<g id="edge10" class="edge">
<title>group_lst&#45;&gt;model_dic</title>
<path fill="none" stroke="black" d="M336.55,-229.68C331.34,-233.28 325.73,-237.15 320.24,-240.93"/>
<polygon fill="black" stroke="black" points="318.02,-238.21 311.78,-246.77 322,-243.97 318.02,-238.21"/>
</g>
<!-- group_pc -->
<g id="node8" class="node">
<title>group_pc</title>
<ellipse fill="none" stroke="black" cx="453.96" cy="-166.12" rx="53.09" ry="18"/>
<text text-anchor="middle" x="453.96" y="-162.42" font-family="Times,serif" font-size="14.00">group_pc</text>
</g>
<!-- group_pc&#45;&gt;group_lst -->
<g id="edge11" class="edge">
<title>group_pc&#45;&gt;group_lst</title>
<path fill="none" stroke="black" d="M424.08,-181.17C416.23,-185.13 407.64,-189.45 399.38,-193.61"/>
<polygon fill="black" stroke="black" points="397.61,-190.58 390.26,-198.21 400.76,-196.84 397.61,-190.58"/>
</g>
<!-- group_txt -->
<g id="node9" class="node">
<title>group_txt</title>
<ellipse fill="none" stroke="black" cx="257.7" cy="-176.15" rx="55.79" ry="18"/>
<text text-anchor="middle" x="257.7" y="-172.45" font-family="Times,serif" font-size="14.00">group_txt</text>
</g>
<!-- group_txt&#45;&gt;group_lst -->
<g id="edge13" class="edge">
<title>group_txt&#45;&gt;group_lst</title>
<path fill="none" stroke="black" d="M295.05,-189.66C301.14,-191.86 307.52,-194.17 313.8,-196.44"/>
<polygon fill="black" stroke="black" points="312.94,-199.86 323.54,-199.97 315.32,-193.27 312.94,-199.86"/>
</g>
<!-- group_txt&#45;&gt;lang_lst -->
<g id="edge12" class="edge">
<title>group_txt&#45;&gt;lang_lst</title>
<path fill="none" stroke="black" d="M234.34,-192.71C230.31,-195.56 226.08,-198.57 221.89,-201.53"/>
<polygon fill="black" stroke="black" points="219.59,-198.87 213.46,-207.51 223.64,-204.58 219.59,-198.87"/>
</g>
<!-- id_lst -->
<g id="node10" class="node">
<title>id_lst</title>
<ellipse fill="none" stroke="black" cx="567.75" cy="-550" rx="36" ry="18"/>
<text text-anchor="middle" x="567.75" y="-546.3" font-family="Times,serif" font-size="14.00">id_lst</text>
</g>
<!-- lang_word -->
<g id="node12" class="node">
<title>lang_word</title>
<ellipse fill="none" stroke="black" cx="102.8" cy="-180.6" rx="58.49" ry="18"/>
<text text-anchor="middle" x="102.8" y="-176.9" font-family="Times,serif" font-size="14.00">lang_word</text>
</g>
<!-- lang_word&#45;&gt;lang_lst -->
<g id="edge14" class="edge">
<title>lang_word&#45;&gt;lang_lst</title>
<path fill="none" stroke="black" d="M134.11,-195.85C140.01,-198.72 146.25,-201.76 152.35,-204.73"/>
<polygon fill="black" stroke="black" points="151.22,-208.08 161.75,-209.31 154.29,-201.78 151.22,-208.08"/>
</g>
<!-- model_dic&#45;&gt;lang_lst -->
<g id="edge15" class="edge">
<title>model_dic&#45;&gt;lang_lst</title>
<path fill="none" stroke="black" d="M252.74,-248.98C246.19,-246.28 239.29,-243.44 232.56,-240.67"/>
<polygon fill="black" stroke="black" points="233.47,-237.26 222.89,-236.68 230.8,-243.73 233.47,-237.26"/>
</g>
<!-- model_dic_txt -->
<g id="node14" class="node">
<title>model_dic_txt</title>
<ellipse fill="none" stroke="black" cx="231.36" cy="-245.81" rx="74.99" ry="18"/>
<text text-anchor="middle" x="231.36" y="-242.11" font-family="Times,serif" font-size="14.00">model_dic_txt</text>
</g>
<!-- model_dic_txt&#45;&gt;lang_lst -->
<g id="edge17" class="edge">
<title>model_dic_txt&#45;&gt;lang_lst</title>
<path fill="none" stroke="black" d="M201.1,-229.13C201.06,-229.11 201.01,-229.08 200.97,-229.06"/>
<polygon fill="black" stroke="black" points="211.28,-230.75 200.83,-228.98 207.9,-236.88 211.28,-230.75"/>
</g>
<!-- model_dic_txt&#45;&gt;model_dic -->
<g id="edge16" class="edge">
<title>model_dic_txt&#45;&gt;model_dic</title>
<path fill="none" stroke="black" d="M277.09,-260.07C277.14,-260.09 277.19,-260.1 277.24,-260.12"/>
<polygon fill="black" stroke="black" points="266.79,-260.52 277.38,-260.16 268.88,-253.84 266.79,-260.52"/>
</g>
<!-- model_entity_dic -->
<g id="node15" class="node">
<title>model_entity_dic</title>
<ellipse fill="none" stroke="black" cx="343.44" cy="-175.32" rx="89.08" ry="18"/>
<text text-anchor="middle" x="343.44" y="-171.62" font-family="Times,serif" font-size="14.00">model_entity_dic</text>
</g>
<!-- model_entity_dic&#45;&gt;entity_dic -->
<g id="edge18" class="edge">
<title>model_entity_dic&#45;&gt;entity_dic</title>
<path fill="none" stroke="black" d="M337.84,-157.35C334.46,-146.49 330.08,-132.44 326.27,-120.19"/>
<polygon fill="black" stroke="black" points="329.54,-118.94 323.23,-110.43 322.86,-121.02 329.54,-118.94"/>
</g>
<!-- model_entity_dic&#45;&gt;model_dic -->
<g id="edge19" class="edge">
<title>model_entity_dic&#45;&gt;model_dic</title>
<path fill="none" stroke="black" d="M331.89,-193.56C323.99,-206.04 313.38,-222.79 304.54,-236.76"/>
<polygon fill="black" stroke="black" points="301.43,-235.14 299.03,-245.46 307.34,-238.88 301.43,-235.14"/>
</g>
<!-- model_parameter_dic -->
<g id="node16" class="node">
<title>model_parameter_dic</title>
<ellipse fill="none" stroke="black" cx="359.7" cy="-245.18" rx="110.48" ry="18"/>
<text text-anchor="middle" x="359.7" y="-241.48" font-family="Times,serif" font-size="14.00">model_parameter_dic</text>
</g>
<!-- model_parameter_dic&#45;&gt;model_dic -->
<g id="edge21" class="edge">
<title>model_parameter_dic&#45;&gt;model_dic</title>
<path fill="none" stroke="black" d="M299.58,-260.37C299.52,-260.39 299.47,-260.4 299.41,-260.42"/>
<polygon fill="black" stroke="black" points="308.08,-254.61 299.25,-260.46 309.8,-261.4 308.08,-254.61"/>
</g>
<!-- parameter_dic -->
<g id="node21" class="node">
<title>parameter_dic</title>
<ellipse fill="none" stroke="black" cx="311.87" cy="-189.77" rx="77.19" ry="18"/>
<text text-anchor="middle" x="311.87" y="-186.07" font-family="Times,serif" font-size="14.00">parameter_dic</text>
</g>
<!-- model_parameter_dic&#45;&gt;parameter_dic -->
<g id="edge20" class="edge">
<title>model_parameter_dic&#45;&gt;parameter_dic</title>
<path fill="none" stroke="black" d="M344.3,-227.34C340.98,-223.49 337.39,-219.34 333.87,-215.26"/>
<polygon fill="black" stroke="black" points="336.42,-212.86 327.24,-207.58 331.12,-217.43 336.42,-212.86"/>
</g>
<!-- model_parameter_import -->
<g id="node17" class="node">
<title>model_parameter_import</title>
<ellipse fill="none" stroke="black" cx="460.24" cy="-232.93" rx="128.08" ry="18"/>
<text text-anchor="middle" x="460.24" y="-229.23" font-family="Times,serif" font-size="14.00">model_parameter_import</text>
</g>
<!-- model_parameter_import&#45;&gt;model_parameter_dic -->
<g id="edge22" class="edge">
<title>model_parameter_import&#45;&gt;model_parameter_dic</title>
<path fill="none" stroke="black" d="M363.05,-244.77C362.98,-244.78 362.91,-244.79 362.85,-244.8"/>
<polygon fill="black" stroke="black" points="372.16,-240.13 362.66,-244.82 373.01,-247.08 372.16,-240.13"/>
</g>
<!-- model_table_dic -->
<g id="node18" class="node">
<title>model_table_dic</title>
<ellipse fill="none" stroke="black" cx="220.03" cy="-346.71" rx="85.29" ry="18"/>
<text text-anchor="middle" x="220.03" y="-343.01" font-family="Times,serif" font-size="14.00">model_table_dic</text>
</g>
<!-- model_table_dic&#45;&gt;model_dic -->
<g id="edge24" class="edge">
<title>model_table_dic&#45;&gt;model_dic</title>
<path fill="none" stroke="black" d="M234.71,-328.63C244.15,-317.01 256.55,-301.73 266.98,-288.88"/>
<polygon fill="black" stroke="black" points="269.91,-290.82 273.5,-280.85 264.48,-286.41 269.91,-290.82"/>
</g>
<!-- table_dic -->
<g id="node38" class="node">
<title>table_dic</title>
<ellipse fill="none" stroke="black" cx="143.29" cy="-324.17" rx="51.99" ry="18"/>
<text text-anchor="middle" x="143.29" y="-320.47" font-family="Times,serif" font-size="14.00">table_dic</text>
</g>
<!-- model_table_dic&#45;&gt;table_dic -->
<g id="edge23" class="edge">
<title>model_table_dic&#45;&gt;table_dic</title>
<path fill="none" stroke="black" d="M170.13,-332.05C170.07,-332.04 170.01,-332.02 169.96,-332"/>
<polygon fill="black" stroke="black" points="180.37,-331.42 169.78,-331.95 178.39,-338.13 180.37,-331.42"/>
</g>
<!-- model_type_dic -->
<g id="node19" class="node">
<title>model_type_dic</title>
<ellipse fill="none" stroke="black" cx="290.27" cy="-168.13" rx="81.79" ry="18"/>
<text text-anchor="middle" x="290.27" y="-164.43" font-family="Times,serif" font-size="14.00">model_type_dic</text>
</g>
<!-- model_type_dic&#45;&gt;model_dic -->
<g id="edge26" class="edge">
<title>model_type_dic&#45;&gt;model_dic</title>
<path fill="none" stroke="black" d="M289.77,-186.49C289.4,-200.2 288.89,-219.18 288.46,-234.85"/>
<polygon fill="black" stroke="black" points="284.96,-234.98 288.18,-245.07 291.95,-235.17 284.96,-234.98"/>
</g>
<!-- model_type_dic&#45;&gt;type_dic -->
<g id="edge25" class="edge">
<title>model_type_dic&#45;&gt;type_dic</title>
<path fill="none" stroke="black" d="M267.02,-150.63C263.36,-147.87 259.53,-144.99 255.73,-142.14"/>
<polygon fill="black" stroke="black" points="257.68,-139.22 247.59,-136.01 253.48,-144.82 257.68,-139.22"/>
</g>
<!-- model_word -->
<g id="node20" class="node">
<title>model_word</title>
<ellipse fill="none" stroke="black" cx="219.73" cy="-272.11" rx="66.89" ry="18"/>
<text text-anchor="middle" x="219.73" y="-268.41" font-family="Times,serif" font-size="14.00">model_word</text>
</g>
<!-- model_word&#45;&gt;lang_lst -->
<g id="edge28" class="edge">
<title>model_word&#45;&gt;lang_lst</title>
<path fill="none" stroke="black" d="M209.16,-254.29C208.37,-252.97 207.57,-251.62 206.77,-250.26"/>
<polygon fill="black" stroke="black" points="209.58,-248.14 201.46,-241.32 203.56,-251.71 209.58,-248.14"/>
</g>
<!-- model_word&#45;&gt;model_dic -->
<g id="edge27" class="edge">
<title>model_word&#45;&gt;model_dic</title>
<path fill="none" stroke="black" d="M280.15,-264.35C280.23,-264.34 280.3,-264.33 280.37,-264.32"/>
<polygon fill="black" stroke="black" points="271.11,-269.04 280.58,-264.29 270.22,-262.1 271.11,-269.04"/>
</g>
<!-- parameter_dic&#45;&gt;type_dic -->
<g id="edge29" class="edge">
<title>parameter_dic&#45;&gt;type_dic</title>
<path fill="none" stroke="black" d="M290.61,-172.45C279.62,-163.48 266.06,-152.43 254.19,-142.75"/>
<polygon fill="black" stroke="black" points="256.26,-139.92 246.3,-136.32 251.84,-145.35 256.26,-139.92"/>
</g>
<!-- parameter_dic_txt -->
<g id="node22" class="node">
<title>parameter_dic_txt</title>
<ellipse fill="none" stroke="black" cx="228.11" cy="-191.63" rx="94.78" ry="18"/>
<text text-anchor="middle" x="228.11" y="-187.93" font-family="Times,serif" font-size="14.00">parameter_dic_txt</text>
</g>
<!-- parameter_dic_txt&#45;&gt;lang_lst -->
<g id="edge31" class="edge">
<title>parameter_dic_txt&#45;&gt;lang_lst</title>
<path fill="none" stroke="black" d="M207.32,-209.43C207.26,-209.49 207.19,-209.54 207.12,-209.6"/>
<polygon fill="black" stroke="black" points="212.24,-200.61 206.93,-209.77 216.8,-205.92 212.24,-200.61"/>
</g>
<!-- parameter_dic_txt&#45;&gt;parameter_dic -->
<g id="edge30" class="edge">
<title>parameter_dic_txt&#45;&gt;parameter_dic</title>
<path fill="none" stroke="black" d="M311.81,-189.78C311.82,-189.78 311.83,-189.78 311.84,-189.78"/>
<polygon fill="black" stroke="black" points="301.95,-193.55 311.85,-189.78 301.76,-186.55 301.95,-193.55"/>
</g>
<!-- parameter_dims -->
<g id="node23" class="node">
<title>parameter_dims</title>
<ellipse fill="none" stroke="black" cx="278.11" cy="-106.17" rx="86.38" ry="18"/>
<text text-anchor="middle" x="278.11" y="-102.47" font-family="Times,serif" font-size="14.00">parameter_dims</text>
</g>
<!-- parameter_dims&#45;&gt;parameter_dic -->
<g id="edge32" class="edge">
<title>parameter_dims&#45;&gt;parameter_dic</title>
<path fill="none" stroke="black" d="M285.44,-124.31C289.91,-135.37 295.71,-149.74 300.73,-162.19"/>
<polygon fill="black" stroke="black" points="297.57,-163.71 304.56,-171.67 304.06,-161.09 297.57,-163.71"/>
</g>
<!-- parameter_dims&#45;&gt;type_dic -->
<g id="edge33" class="edge">
<title>parameter_dims&#45;&gt;type_dic</title>
<path fill="none" stroke="black" d="M226.03,-119.63C226,-119.64 225.98,-119.64 225.96,-119.65"/>
<polygon fill="black" stroke="black" points="234.72,-113.75 225.92,-119.66 236.48,-120.53 234.72,-113.75"/>
</g>
<!-- parameter_dims_txt -->
<g id="node24" class="node">
<title>parameter_dims_txt</title>
<ellipse fill="none" stroke="black" cx="185.83" cy="-155.98" rx="103.98" ry="18"/>
<text text-anchor="middle" x="185.83" y="-152.28" font-family="Times,serif" font-size="14.00">parameter_dims_txt</text>
</g>
<!-- parameter_dims_txt&#45;&gt;lang_lst -->
<g id="edge35" class="edge">
<title>parameter_dims_txt&#45;&gt;lang_lst</title>
<path fill="none" stroke="black" d="M187.18,-174.07C187.67,-180.58 188.24,-188.09 188.77,-195.26"/>
<polygon fill="black" stroke="black" points="185.29,-195.65 189.53,-205.36 192.27,-195.12 185.29,-195.65"/>
</g>
<!-- parameter_dims_txt&#45;&gt;parameter_dims -->
<g id="edge34" class="edge">
<title>parameter_dims_txt&#45;&gt;parameter_dims</title>
<path fill="none" stroke="black" d="M217.59,-138.84C224.11,-135.31 231.06,-131.56 237.84,-127.9"/>
<polygon fill="black" stroke="black" points="239.78,-130.83 246.92,-123 236.46,-124.67 239.78,-130.83"/>
</g>
<!-- profile_lst -->
<g id="node25" class="node">
<title>profile_lst</title>
<ellipse fill="none" stroke="black" cx="512.54" cy="-446.64" rx="56.59" ry="18"/>
<text text-anchor="middle" x="512.54" y="-442.94" font-family="Times,serif" font-size="14.00">profile_lst</text>
</g>
<!-- profile_option -->
<g id="node26" class="node">
<title>profile_option</title>
<ellipse fill="none" stroke="black" cx="583.75" cy="-436" rx="74.19" ry="18"/>
<text text-anchor="middle" x="583.75" y="-432.3" font-family="Times,serif" font-size="14.00">profile_option</text>
</g>
<!-- profile_option&#45;&gt;profile_lst -->
<g id="edge36" class="edge">
<title>profile_option&#45;&gt;profile_lst</title>
<path fill="none" stroke="black" d="M520.44,-445.46C520.36,-445.47 520.29,-445.48 520.21,-445.49"/>
<polygon fill="black" stroke="black" points="529.36,-440.58 519.99,-445.53 530.4,-447.51 529.36,-440.58"/>
</g>
<!-- run_entity -->
<g id="node27" class="node">
<title>run_entity</title>
<ellipse fill="none" stroke="black" cx="413.69" cy="-204.27" rx="58.49" ry="18"/>
<text text-anchor="middle" x="413.69" y="-200.57" font-family="Times,serif" font-size="14.00">run_entity</text>
</g>
<!-- run_entity&#45;&gt;entity_gen -->
<g id="edge38" class="edge">
<title>run_entity&#45;&gt;entity_gen</title>
<path fill="none" stroke="black" d="M411.09,-185.84C408.6,-168.12 404.79,-141.09 401.92,-120.7"/>
<polygon fill="black" stroke="black" points="405.38,-120.14 400.52,-110.72 398.45,-121.11 405.38,-120.14"/>
</g>
<!-- run_lst -->
<g id="node28" class="node">
<title>run_lst</title>
<ellipse fill="none" stroke="black" cx="342.68" cy="-298.87" rx="42.79" ry="18"/>
<text text-anchor="middle" x="342.68" y="-295.17" font-family="Times,serif" font-size="14.00">run_lst</text>
</g>
<!-- run_entity&#45;&gt;run_lst -->
<g id="edge37" class="edge">
<title>run_entity&#45;&gt;run_lst</title>
<path fill="none" stroke="black" d="M400.33,-222.07C389.46,-236.56 373.96,-257.21 361.77,-273.45"/>
<polygon fill="black" stroke="black" points="358.94,-271.38 355.74,-281.48 364.54,-275.58 358.94,-271.38"/>
</g>
<!-- run_lst&#45;&gt;model_dic -->
<g id="edge39" class="edge">
<title>run_lst&#45;&gt;model_dic</title>
<path fill="none" stroke="black" d="M319.04,-283.62C318.92,-283.54 318.79,-283.46 318.67,-283.38"/>
<polygon fill="black" stroke="black" points="323.36,-282.24 313.06,-279.76 319.57,-288.12 323.36,-282.24"/>
</g>
<!-- run_option -->
<g id="node29" class="node">
<title>run_option</title>
<ellipse fill="none" stroke="black" cx="417.57" cy="-343.78" rx="60.39" ry="18"/>
<text text-anchor="middle" x="417.57" y="-340.08" font-family="Times,serif" font-size="14.00">run_option</text>
</g>
<!-- run_option&#45;&gt;run_lst -->
<g id="edge40" class="edge">
<title>run_option&#45;&gt;run_lst</title>
<path fill="none" stroke="black" d="M390.53,-327.57C385.94,-324.82 381.12,-321.92 376.37,-319.08"/>
<polygon fill="black" stroke="black" points="377.81,-315.86 367.44,-313.72 374.21,-321.86 377.81,-315.86"/>
</g>
<!-- run_parameter -->
<g id="node30" class="node">
<title>run_parameter</title>
<ellipse fill="none" stroke="black" cx="397.51" cy="-258.36" rx="79.89" ry="18"/>
<text text-anchor="middle" x="397.51" y="-254.66" font-family="Times,serif" font-size="14.00">run_parameter</text>
</g>
<!-- run_parameter&#45;&gt;parameter_dic -->
<g id="edge42" class="edge">
<title>run_parameter&#45;&gt;parameter_dic</title>
<path fill="none" stroke="black" d="M375.45,-240.69C365.08,-232.39 352.57,-222.37 341.4,-213.42"/>
<polygon fill="black" stroke="black" points="343.55,-210.66 333.55,-207.14 339.17,-216.12 343.55,-210.66"/>
</g>
<!-- run_parameter&#45;&gt;run_lst -->
<g id="edge41" class="edge">
<title>run_parameter&#45;&gt;run_lst</title>
<path fill="none" stroke="black" d="M373.94,-275.77C373.43,-276.15 372.92,-276.53 372.41,-276.9"/>
<polygon fill="black" stroke="black" points="370.12,-274.25 364.15,-283.01 374.28,-279.88 370.12,-274.25"/>
</g>
<!-- run_parameter_import -->
<g id="node31" class="node">
<title>run_parameter_import</title>
<ellipse fill="none" stroke="black" cx="487.82" cy="-282.18" rx="115.88" ry="18"/>
<text text-anchor="middle" x="487.82" y="-278.48" font-family="Times,serif" font-size="14.00">run_parameter_import</text>
</g>
<!-- run_parameter_import&#45;&gt;run_parameter -->
<g id="edge43" class="edge">
<title>run_parameter_import&#45;&gt;run_parameter</title>
<path fill="none" stroke="black" d="M428.84,-266.62C428.77,-266.61 428.71,-266.59 428.64,-266.57"/>
<polygon fill="black" stroke="black" points="439,-265.69 428.44,-266.52 437.22,-272.46 439,-265.69"/>
</g>
<!-- run_parameter_txt -->
<g id="node32" class="node">
<title>run_parameter_txt</title>
<ellipse fill="none" stroke="black" cx="275.81" cy="-234.23" rx="97.48" ry="18"/>
<text text-anchor="middle" x="275.81" y="-230.53" font-family="Times,serif" font-size="14.00">run_parameter_txt</text>
</g>
<!-- run_parameter_txt&#45;&gt;lang_lst -->
<g id="edge46" class="edge">
<title>run_parameter_txt&#45;&gt;lang_lst</title>
<path fill="none" stroke="black" d="M194.99,-224.02C194.91,-224.01 194.83,-224 194.75,-223.99"/>
<polygon fill="black" stroke="black" points="204.87,-221.75 194.51,-223.96 204,-228.69 204.87,-221.75"/>
</g>
<!-- run_parameter_txt&#45;&gt;parameter_dic -->
<g id="edge45" class="edge">
<title>run_parameter_txt&#45;&gt;parameter_dic</title>
<path fill="none" stroke="black" d="M290.27,-216.4C290.49,-216.13 290.71,-215.86 290.93,-215.58"/>
<polygon fill="black" stroke="black" points="293.83,-217.57 297.41,-207.6 288.39,-213.16 293.83,-217.57"/>
</g>
<!-- run_parameter_txt&#45;&gt;run_lst -->
<g id="edge44" class="edge">
<title>run_parameter_txt&#45;&gt;run_lst</title>
<path fill="none" stroke="black" d="M294.44,-252.23C301.74,-259.3 310.23,-267.5 318.03,-275.04"/>
<polygon fill="black" stroke="black" points="315.91,-277.86 325.53,-282.29 320.77,-272.82 315.91,-277.86"/>
</g>
<!-- run_progress -->
<g id="node33" class="node">
<title>run_progress</title>
<ellipse fill="none" stroke="black" cx="392.71" cy="-374.03" rx="72.29" ry="18"/>
<text text-anchor="middle" x="392.71" y="-370.33" font-family="Times,serif" font-size="14.00">run_progress</text>
</g>
<!-- run_progress&#45;&gt;run_lst -->
<g id="edge47" class="edge">
<title>run_progress&#45;&gt;run_lst</title>
<path fill="none" stroke="black" d="M380.85,-356.22C374.58,-346.79 366.76,-335.04 359.83,-324.64"/>
<polygon fill="black" stroke="black" points="362.74,-322.68 354.28,-316.3 356.91,-326.56 362.74,-322.68"/>
</g>
<!-- run_table -->
<g id="node34" class="node">
<title>run_table</title>
<ellipse fill="none" stroke="black" cx="247.84" cy="-375.75" rx="54.69" ry="18"/>
<text text-anchor="middle" x="247.84" y="-372.05" font-family="Times,serif" font-size="14.00">run_table</text>
</g>
<!-- run_table&#45;&gt;run_lst -->
<g id="edge48" class="edge">
<title>run_table&#45;&gt;run_lst</title>
<path fill="none" stroke="black" d="M268.42,-359.07C282.03,-348.04 300.03,-333.45 314.9,-321.39"/>
<polygon fill="black" stroke="black" points="317.23,-324.01 322.79,-315 312.82,-318.57 317.23,-324.01"/>
</g>
<!-- run_table&#45;&gt;table_dic -->
<g id="edge49" class="edge">
<title>run_table&#45;&gt;table_dic</title>
<path fill="none" stroke="black" d="M217.32,-360.69C206.38,-355.29 193.89,-349.13 182.33,-343.43"/>
<polygon fill="black" stroke="black" points="183.82,-340.26 173.3,-338.98 180.72,-346.54 183.82,-340.26"/>
</g>
<!-- run_txt -->
<g id="node35" class="node">
<title>run_txt</title>
<ellipse fill="none" stroke="black" cx="258.68" cy="-281.22" rx="44.39" ry="18"/>
<text text-anchor="middle" x="258.68" y="-277.52" font-family="Times,serif" font-size="14.00">run_txt</text>
</g>
<!-- run_txt&#45;&gt;lang_lst -->
<g id="edge51" class="edge">
<title>run_txt&#45;&gt;lang_lst</title>
<path fill="none" stroke="black" d="M239.43,-264.84C232.91,-259.28 225.48,-252.96 218.44,-246.96"/>
<polygon fill="black" stroke="black" points="220.3,-243.95 210.42,-240.13 215.76,-249.28 220.3,-243.95"/>
</g>
<!-- run_txt&#45;&gt;run_lst -->
<g id="edge50" class="edge">
<title>run_txt&#45;&gt;run_lst</title>
<path fill="none" stroke="black" d="M298.22,-289.53C298.34,-289.56 298.46,-289.58 298.59,-289.61"/>
<polygon fill="black" stroke="black" points="293.59,-292.13 304.1,-290.77 295.03,-285.28 293.59,-292.13"/>
</g>
<!-- table_acc -->
<g id="node36" class="node">
<title>table_acc</title>
<ellipse fill="none" stroke="black" cx="53.95" cy="-305.03" rx="53.89" ry="18"/>
<text text-anchor="middle" x="53.95" y="-301.33" font-family="Times,serif" font-size="14.00">table_acc</text>
</g>
<!-- table_acc&#45;&gt;table_dic -->
<g id="edge52" class="edge">
<title>table_acc&#45;&gt;table_dic</title>
<path fill="none" stroke="black" d="M99.4,-314.77C99.44,-314.78 99.49,-314.79 99.53,-314.79"/>
<polygon fill="black" stroke="black" points="89.15,-316.14 99.66,-314.82 90.62,-309.3 89.15,-316.14"/>
</g>
<!-- table_acc_txt -->
<g id="node37" class="node">
<title>table_acc_txt</title>
<ellipse fill="none" stroke="black" cx="96.36" cy="-236.49" rx="71.49" ry="18"/>
<text text-anchor="middle" x="96.36" y="-232.79" font-family="Times,serif" font-size="14.00">table_acc_txt</text>
</g>
<!-- table_acc_txt&#45;&gt;lang_lst -->
<g id="edge54" class="edge">
<title>table_acc_txt&#45;&gt;lang_lst</title>
<path fill="none" stroke="black" d="M159.15,-227.86C159.22,-227.85 159.29,-227.85 159.35,-227.84"/>
<polygon fill="black" stroke="black" points="150.13,-232.64 159.56,-227.81 149.17,-225.71 150.13,-232.64"/>
</g>
<!-- table_acc_txt&#45;&gt;table_acc -->
<g id="edge53" class="edge">
<title>table_acc_txt&#45;&gt;table_acc</title>
<path fill="none" stroke="black" d="M85.21,-254.5C80.65,-261.87 75.27,-270.56 70.28,-278.63"/>
<polygon fill="black" stroke="black" points="67.15,-277.03 64.87,-287.38 73.11,-280.72 67.15,-277.03"/>
</g>
<!-- table_dic_txt -->
<g id="node39" class="node">
<title>table_dic_txt</title>
<ellipse fill="none" stroke="black" cx="131.1" cy="-268.53" rx="69.59" ry="18"/>
<text text-anchor="middle" x="131.1" y="-264.83" font-family="Times,serif" font-size="14.00">table_dic_txt</text>
</g>
<!-- table_dic_txt&#45;&gt;lang_lst -->
<g id="edge56" class="edge">
<title>table_dic_txt&#45;&gt;lang_lst</title>
<path fill="none" stroke="black" d="M153.71,-251.51C156.12,-249.69 158.61,-247.82 161.09,-245.95"/>
<polygon fill="black" stroke="black" points="163.56,-248.47 169.44,-239.66 159.35,-242.88 163.56,-248.47"/>
</g>
<!-- table_dic_txt&#45;&gt;table_dic -->
<g id="edge55" class="edge">
<title>table_dic_txt&#45;&gt;table_dic</title>
<path fill="none" stroke="black" d="M135.09,-286.75C135.75,-289.76 136.45,-292.94 137.14,-296.12"/>
<polygon fill="black" stroke="black" points="133.77,-297.08 139.33,-306.1 140.61,-295.58 133.77,-297.08"/>
</g>
<!-- table_dims -->
<g id="node40" class="node">
<title>table_dims</title>
<ellipse fill="none" stroke="black" cx="127.08" cy="-181.99" rx="61.19" ry="18"/>
<text text-anchor="middle" x="127.08" y="-178.29" font-family="Times,serif" font-size="14.00">table_dims</text>
</g>
<!-- table_dims&#45;&gt;table_dic -->
<g id="edge57" class="edge">
<title>table_dims&#45;&gt;table_dic</title>
<path fill="none" stroke="black" d="M129.13,-199.99C131.88,-224.11 136.79,-267.17 140.04,-295.7"/>
<polygon fill="black" stroke="black" points="136.59,-296.32 141.2,-305.86 143.54,-295.52 136.59,-296.32"/>
</g>
<!-- table_dims&#45;&gt;type_dic -->
<g id="edge58" class="edge">
<title>table_dims&#45;&gt;type_dic</title>
<path fill="none" stroke="black" d="M153.04,-165.61C165.12,-158 179.63,-148.84 192.51,-140.72"/>
<polygon fill="black" stroke="black" points="194.52,-143.58 201.12,-135.29 190.79,-137.66 194.52,-143.58"/>
</g>
<!-- table_dims_txt -->
<g id="node41" class="node">
<title>table_dims_txt</title>
<ellipse fill="none" stroke="black" cx="114.1" cy="-216.1" rx="78.79" ry="18"/>
<text text-anchor="middle" x="114.1" y="-212.4" font-family="Times,serif" font-size="14.00">table_dims_txt</text>
</g>
<!-- table_dims_txt&#45;&gt;lang_lst -->
<g id="edge60" class="edge">
<title>table_dims_txt&#45;&gt;lang_lst</title>
<path fill="none" stroke="black" d="M186.76,-223.11C186.84,-223.11 186.93,-223.12 187,-223.13"/>
<polygon fill="black" stroke="black" points="176.95,-225.67 187.24,-223.15 177.62,-218.7 176.95,-225.67"/>
</g>
<!-- table_dims_txt&#45;&gt;table_dims -->
<g id="edge59" class="edge">
<title>table_dims_txt&#45;&gt;table_dims</title>
<path fill="none" stroke="black" d="M121.05,-197.84C121.07,-197.78 121.09,-197.72 121.12,-197.65"/>
<polygon fill="black" stroke="black" points="120.9,-208.06 121.19,-197.46 114.36,-205.56 120.9,-208.06"/>
</g>
<!-- table_expr -->
<g id="node42" class="node">
<title>table_expr</title>
<ellipse fill="none" stroke="black" cx="79.68" cy="-352.3" rx="59.59" ry="18"/>
<text text-anchor="middle" x="79.68" y="-348.6" font-family="Times,serif" font-size="14.00">table_expr</text>
</g>
<!-- table_expr&#45;&gt;table_dic -->
<g id="edge61" class="edge">
<title>table_expr&#45;&gt;table_dic</title>
<path fill="none" stroke="black" d="M113.35,-337.41C113.41,-337.38 113.46,-337.36 113.52,-337.33"/>
<polygon fill="black" stroke="black" points="105.97,-344.5 113.7,-337.25 103.14,-338.1 105.97,-344.5"/>
</g>
<!-- table_expr_txt -->
<g id="node43" class="node">
<title>table_expr_txt</title>
<ellipse fill="none" stroke="black" cx="106.88" cy="-270.61" rx="77.19" ry="18"/>
<text text-anchor="middle" x="106.88" y="-266.91" font-family="Times,serif" font-size="14.00">table_expr_txt</text>
</g>
<!-- table_expr_txt&#45;&gt;lang_lst -->
<g id="edge63" class="edge">
<title>table_expr_txt&#45;&gt;lang_lst</title>
<path fill="none" stroke="black" d="M136.74,-253.87C142.76,-250.49 149.14,-246.91 155.33,-243.44"/>
<polygon fill="black" stroke="black" points="157.2,-246.41 164.21,-238.47 153.77,-240.3 157.2,-246.41"/>
</g>
<!-- table_expr_txt&#45;&gt;table_expr -->
<g id="edge62" class="edge">
<title>table_expr_txt&#45;&gt;table_expr</title>
<path fill="none" stroke="black" d="M100.84,-288.74C97.36,-299.21 92.9,-312.6 88.97,-324.39"/>
<polygon fill="black" stroke="black" points="85.54,-323.63 85.7,-334.22 92.18,-325.84 85.54,-323.63"/>
</g>
<!-- task_lst -->
<g id="node44" class="node">
<title>task_lst</title>
<ellipse fill="none" stroke="black" cx="279.17" cy="-372.95" rx="46.29" ry="18"/>
<text text-anchor="middle" x="279.17" y="-369.25" font-family="Times,serif" font-size="14.00">task_lst</text>
</g>
<!-- task_lst&#45;&gt;model_dic -->
<g id="edge64" class="edge">
<title>task_lst&#45;&gt;model_dic</title>
<path fill="none" stroke="black" d="M280.58,-354.85C281.92,-337.64 283.95,-311.5 285.5,-291.56"/>
<polygon fill="black" stroke="black" points="288.99,-291.74 286.28,-281.5 282.02,-291.2 288.99,-291.74"/>
</g>
<!-- task_run_lst -->
<g id="node45" class="node">
<title>task_run_lst</title>
<ellipse fill="none" stroke="black" cx="267.69" cy="-465.74" rx="66.89" ry="18"/>
<text text-anchor="middle" x="267.69" y="-462.04" font-family="Times,serif" font-size="14.00">task_run_lst</text>
</g>
<!-- task_run_lst&#45;&gt;task_lst -->
<g id="edge65" class="edge">
<title>task_run_lst&#45;&gt;task_lst</title>
<path fill="none" stroke="black" d="M269.96,-447.4C271.58,-434.31 273.79,-416.45 275.64,-401.5"/>
<polygon fill="black" stroke="black" points="279.16,-401.59 276.91,-391.24 272.21,-400.73 279.16,-401.59"/>
</g>
<!-- task_run_set -->
<g id="node46" class="node">
<title>task_run_set</title>
<ellipse fill="none" stroke="black" cx="272.89" cy="-545.01" rx="69.59" ry="18"/>
<text text-anchor="middle" x="272.89" y="-541.31" font-family="Times,serif" font-size="14.00">task_run_set</text>
</g>
<!-- task_run_set&#45;&gt;task_run_lst -->
<g id="edge66" class="edge">
<title>task_run_set&#45;&gt;task_run_lst</title>
<path fill="none" stroke="black" d="M271.69,-526.63C271.05,-516.95 270.26,-504.88 269.55,-494.04"/>
<polygon fill="black" stroke="black" points="273.02,-493.5 268.87,-483.75 266.04,-493.96 273.02,-493.5"/>
</g>
<!-- task_set -->
<g id="node47" class="node">
<title>task_set</title>
<ellipse fill="none" stroke="black" cx="336.86" cy="-418.54" rx="48.99" ry="18"/>
<text text-anchor="middle" x="336.86" y="-414.84" font-family="Times,serif" font-size="14.00">task_set</text>
</g>
<!-- task_set&#45;&gt;task_lst -->
<g id="edge67" class="edge">
<title>task_set&#45;&gt;task_lst</title>
<path fill="none" stroke="black" d="M316.03,-402.08C313.31,-399.92 310.47,-397.68 307.64,-395.45"/>
<polygon fill="black" stroke="black" points="309.79,-392.68 299.78,-389.23 305.45,-398.17 309.79,-392.68"/>
</g>
<!-- workset_lst -->
<g id="node53" class="node">
<title>workset_lst</title>
<ellipse fill="none" stroke="black" cx="317.06" cy="-336.41" rx="63.89" ry="18"/>
<text text-anchor="middle" x="317.06" y="-332.71" font-family="Times,serif" font-size="14.00">workset_lst</text>
</g>
<!-- task_set&#45;&gt;workset_lst -->
<g id="edge68" class="edge">
<title>task_set&#45;&gt;workset_lst</title>
<path fill="none" stroke="black" d="M332.47,-400.31C329.93,-389.78 326.68,-376.32 323.83,-364.47"/>
<polygon fill="black" stroke="black" points="327.19,-363.48 321.44,-354.58 320.39,-365.12 327.19,-363.48"/>
</g>
<!-- task_txt -->
<g id="node48" class="node">
<title>task_txt</title>
<ellipse fill="none" stroke="black" cx="181.27" cy="-329.74" rx="48.19" ry="18"/>
<text text-anchor="middle" x="181.27" y="-326.04" font-family="Times,serif" font-size="14.00">task_txt</text>
</g>
<!-- task_txt&#45;&gt;lang_lst -->
<g id="edge70" class="edge">
<title>task_txt&#45;&gt;lang_lst</title>
<path fill="none" stroke="black" d="M182.9,-311.72C184.39,-295.31 186.61,-270.82 188.33,-251.8"/>
<polygon fill="black" stroke="black" points="191.84,-251.89 189.25,-241.61 184.86,-251.26 191.84,-251.89"/>
</g>
<!-- task_txt&#45;&gt;task_lst -->
<g id="edge69" class="edge">
<title>task_txt&#45;&gt;task_lst</title>
<path fill="none" stroke="black" d="M212.52,-343.53C220.98,-347.27 230.27,-351.36 239.14,-355.28"/>
<polygon fill="black" stroke="black" points="238,-358.6 248.56,-359.44 240.82,-352.2 238,-358.6"/>
</g>
<!-- type_dic_txt -->
<g id="node50" class="node">
<title>type_dic_txt</title>
<ellipse fill="none" stroke="black" cx="155.8" cy="-157.66" rx="66.89" ry="18"/>
<text text-anchor="middle" x="155.8" y="-153.96" font-family="Times,serif" font-size="14.00">type_dic_txt</text>
</g>
<!-- type_dic_txt&#45;&gt;lang_lst -->
<g id="edge72" class="edge">
<title>type_dic_txt&#45;&gt;lang_lst</title>
<path fill="none" stroke="black" d="M165.39,-175.65C168.79,-182.04 172.7,-189.38 176.42,-196.36"/>
<polygon fill="black" stroke="black" points="173.52,-198.35 181.31,-205.53 179.7,-195.06 173.52,-198.35"/>
</g>
<!-- type_dic_txt&#45;&gt;type_dic -->
<g id="edge71" class="edge">
<title>type_dic_txt&#45;&gt;type_dic</title>
<path fill="none" stroke="black" d="M185.93,-141.33C186.93,-140.78 187.94,-140.24 188.94,-139.69"/>
<polygon fill="black" stroke="black" points="190.87,-142.63 197.99,-134.79 187.53,-136.47 190.87,-142.63"/>
</g>
<!-- type_enum_lst -->
<g id="node51" class="node">
<title>type_enum_lst</title>
<ellipse fill="none" stroke="black" cx="185.81" cy="-31.51" rx="77.19" ry="18"/>
<text text-anchor="middle" x="185.81" y="-27.81" font-family="Times,serif" font-size="14.00">type_enum_lst</text>
</g>
<!-- type_enum_lst&#45;&gt;type_dic -->
<g id="edge73" class="edge">
<title>type_enum_lst&#45;&gt;type_dic</title>
<path fill="none" stroke="black" d="M194.12,-49.78C199.74,-62.15 207.27,-78.72 213.59,-92.62"/>
<polygon fill="black" stroke="black" points="210.4,-94.07 217.73,-101.73 216.77,-91.18 210.4,-94.07"/>
</g>
<!-- type_enum_txt -->
<g id="node52" class="node">
<title>type_enum_txt</title>
<ellipse fill="none" stroke="black" cx="154.11" cy="-137.65" rx="79.09" ry="18"/>
<text text-anchor="middle" x="154.11" y="-133.95" font-family="Times,serif" font-size="14.00">type_enum_txt</text>
</g>
<!-- type_enum_txt&#45;&gt;lang_lst -->
<g id="edge75" class="edge">
<title>type_enum_txt&#45;&gt;lang_lst</title>
<path fill="none" stroke="black" d="M161.91,-155.86C166.92,-167.54 173.51,-182.94 179.15,-196.1"/>
<polygon fill="black" stroke="black" points="176.07,-197.8 183.23,-205.62 182.51,-195.05 176.07,-197.8"/>
</g>
<!-- type_enum_txt&#45;&gt;type_dic -->
<g id="edge74" class="edge">
<title>type_enum_txt&#45;&gt;type_dic</title>
<path fill="none" stroke="black" d="M207.4,-124.3C207.48,-124.28 207.56,-124.26 207.64,-124.24"/>
<polygon fill="black" stroke="black" points="199.04,-130 207.89,-124.18 197.34,-123.21 199.04,-130"/>
</g>
<!-- workset_lst&#45;&gt;model_dic -->
<g id="edge76" class="edge">
<title>workset_lst&#45;&gt;model_dic</title>
<path fill="none" stroke="black" d="M309.8,-318.35C306.48,-310.1 302.48,-300.15 298.79,-290.98"/>
<polygon fill="black" stroke="black" points="301.95,-289.45 294.97,-281.48 295.45,-292.06 301.95,-289.45"/>
</g>
<!-- workset_lst&#45;&gt;run_lst -->
<g id="edge77" class="edge">
<title>workset_lst&#45;&gt;run_lst</title>
<path fill="none" stroke="black" d="M329.27,-318.52C329.34,-318.43 329.4,-318.33 329.47,-318.24"/>
<polygon fill="black" stroke="black" points="328.07,-326.49 330.82,-316.25 322.29,-322.54 328.07,-326.49"/>
</g>
<!-- workset_parameter -->
<g id="node54" class="node">
<title>workset_parameter</title>
<ellipse fill="none" stroke="black" cx="287.42" cy="-298.27" rx="100.98" ry="18"/>
<text text-anchor="middle" x="287.42" y="-294.57" font-family="Times,serif" font-size="14.00">workset_parameter</text>
</g>
<!-- workset_parameter&#45;&gt;parameter_dic -->
<g id="edge79" class="edge">
<title>workset_parameter&#45;&gt;parameter_dic</title>
<path fill="none" stroke="black" d="M291.57,-279.87C295.4,-262.85 301.15,-237.32 305.56,-217.78"/>
<polygon fill="black" stroke="black" points="309,-218.43 307.78,-207.91 302.17,-216.89 309,-218.43"/>
</g>
<!-- workset_parameter&#45;&gt;workset_lst -->
<g id="edge78" class="edge">
<title>workset_parameter&#45;&gt;workset_lst</title>
<path fill="none" stroke="black" d="M301.55,-316.44C301.62,-316.54 301.69,-316.64 301.77,-316.73"/>
<polygon fill="black" stroke="black" points="294.43,-313 303.34,-318.75 299.96,-308.7 294.43,-313"/>
</g>
<!-- workset_parameter_txt -->
<g id="node55" class="node">
<title>workset_parameter_txt</title>
<ellipse fill="none" stroke="black" cx="175.5" cy="-282.45" rx="118.08" ry="18"/>
<text text-anchor="middle" x="175.5" y="-278.75" font-family="Times,serif" font-size="14.00">workset_parameter_txt</text>
</g>
<!-- workset_parameter_txt&#45;&gt;lang_lst -->
<g id="edge81" class="edge">
<title>workset_parameter_txt&#45;&gt;lang_lst</title>
<path fill="none" stroke="black" d="M180.2,-264.44C181.26,-260.4 182.4,-256.03 183.53,-251.69"/>
<polygon fill="black" stroke="black" points="186.97,-252.37 186.11,-241.81 180.2,-250.6 186.97,-252.37"/>
</g>
<!-- workset_parameter_txt&#45;&gt;workset_parameter -->
<g id="edge80" class="edge">
<title>workset_parameter_txt&#45;&gt;workset_parameter</title>
<path fill="none" stroke="black" d="M262.3,-294.72C262.36,-294.73 262.42,-294.74 262.47,-294.74"/>
<polygon fill="black" stroke="black" points="252.25,-296.83 262.64,-294.77 253.23,-289.9 252.25,-296.83"/>
</g>
<!-- workset_txt -->
<g id="node56" class="node">
<title>workset_txt</title>
<ellipse fill="none" stroke="black" cx="213.8" cy="-311.36" rx="65.79" ry="18"/>
<text text-anchor="middle" x="213.8" y="-307.66" font-family="Times,serif" font-size="14.00">workset_txt</text>
</g>
<!-- workset_txt&#45;&gt;lang_lst -->
<g id="edge83" class="edge">
<title>workset_txt&#45;&gt;lang_lst</title>
<path fill="none" stroke="black" d="M209.05,-293.16C205.92,-281.14 201.75,-265.16 198.2,-251.54"/>
<polygon fill="black" stroke="black" points="201.54,-250.48 195.63,-241.69 194.77,-252.25 201.54,-250.48"/>
</g>
<!-- workset_txt&#45;&gt;workset_lst -->
<g id="edge82" class="edge">
<title>workset_txt&#45;&gt;workset_lst</title>
<path fill="none" stroke="black" d="M263.01,-323.3C263.13,-323.33 263.24,-323.36 263.36,-323.38"/>
<polygon fill="black" stroke="black" points="258.08,-325.7 268.62,-324.66 259.73,-318.9 258.08,-325.7"/>
</g>
</g>
</svg>
