<?xml version="1.0" encoding="UTF-8" standalone="no"?>
<!DOCTYPE svg PUBLIC "-//W3C//DTD SVG 1.1//EN"
 "http://www.w3.org/Graphics/SVG/1.1/DTD/svg11.dtd">
<!-- Generated by graphviz version 2.43.0 (0)
 -->
<!-- Title: alt_database_schema_diagram Pages: 1 -->
<svg width="3627pt" height="404pt"
 viewBox="0.00 0.00 3627.37 404.00" xmlns="http://www.w3.org/2000/svg" xmlns:xlink="http://www.w3.org/1999/xlink">
<g id="graph0" class="graph" transform="scale(1 1) rotate(0) translate(4 400)">
<title>alt_database_schema_diagram</title>
<polygon fill="white" stroke="transparent" points="-4,4 -4,-400 3623.37,-400 3623.37,4 -4,4"/>
<!-- entity_attr -->
<g id="node1" class="node">
<title>entity_attr</title>
<ellipse fill="none" stroke="black" cx="490.27" cy="-90" rx="59.59" ry="18"/>
<text text-anchor="middle" x="490.27" y="-86.3" font-family="Times,serif" font-size="14.00">entity_attr</text>
</g>
<!-- entity_dic -->
<g id="node3" class="node">
<title>entity_dic</title>
<ellipse fill="none" stroke="black" cx="289.27" cy="-18" rx="55.79" ry="18"/>
<text text-anchor="middle" x="289.27" y="-14.3" font-family="Times,serif" font-size="14.00">entity_dic</text>
</g>
<!-- entity_attr&#45;&gt;entity_dic -->
<g id="edge1" class="edge">
<title>entity_attr&#45;&gt;entity_dic</title>
<path fill="none" stroke="black" d="M452.47,-75.83C419.31,-64.29 370.99,-47.46 335.53,-35.11"/>
<polygon fill="black" stroke="black" points="336.49,-31.74 325.89,-31.75 334.19,-38.35 336.49,-31.74"/>
</g>
<!-- type_dic -->
<g id="node49" class="node">
<title>type_dic</title>
<ellipse fill="none" stroke="black" cx="2593.27" cy="-18" rx="49.29" ry="18"/>
<text text-anchor="middle" x="2593.27" y="-14.3" font-family="Times,serif" font-size="14.00">type_dic</text>
</g>
<!-- entity_attr&#45;&gt;type_dic -->
<g id="edge2" class="edge">
<title>entity_attr&#45;&gt;type_dic</title>
<path fill="none" stroke="black" d="M549.27,-87.04C852.16,-76.95 2230.09,-31.09 2533.89,-20.98"/>
<polygon fill="black" stroke="black" points="2534.37,-24.46 2544.24,-20.63 2534.13,-17.47 2534.37,-24.46"/>
</g>
<!-- entity_attr_txt -->
<g id="node2" class="node">
<title>entity_attr_txt</title>
<ellipse fill="none" stroke="black" cx="469.27" cy="-162" rx="77.19" ry="18"/>
<text text-anchor="middle" x="469.27" y="-158.3" font-family="Times,serif" font-size="14.00">entity_attr_txt</text>
</g>
<!-- entity_attr_txt&#45;&gt;entity_attr -->
<g id="edge3" class="edge">
<title>entity_attr_txt&#45;&gt;entity_attr</title>
<path fill="none" stroke="black" d="M474.47,-143.7C476.8,-135.9 479.62,-126.51 482.23,-117.83"/>
<polygon fill="black" stroke="black" points="485.62,-118.69 485.14,-108.1 478.92,-116.68 485.62,-118.69"/>
</g>
<!-- lang_lst -->
<g id="node11" class="node">
<title>lang_lst</title>
<ellipse fill="none" stroke="black" cx="1813.27" cy="-18" rx="46.59" ry="18"/>
<text text-anchor="middle" x="1813.27" y="-14.3" font-family="Times,serif" font-size="14.00">lang_lst</text>
</g>
<!-- entity_attr_txt&#45;&gt;lang_lst -->
<g id="edge4" class="edge">
<title>entity_attr_txt&#45;&gt;lang_lst</title>
<path fill="none" stroke="black" d="M508.02,-146.32C564.66,-125.6 673.85,-88.46 770.27,-72 962.34,-39.2 1567.12,-24.12 1756.2,-20.12"/>
<polygon fill="black" stroke="black" points="1756.55,-23.62 1766.47,-19.91 1756.4,-16.62 1756.55,-23.62"/>
</g>
<!-- entity_dic_txt -->
<g id="node4" class="node">
<title>entity_dic_txt</title>
<ellipse fill="none" stroke="black" cx="339.27" cy="-90" rx="73.39" ry="18"/>
<text text-anchor="middle" x="339.27" y="-86.3" font-family="Times,serif" font-size="14.00">entity_dic_txt</text>
</g>
<!-- entity_dic_txt&#45;&gt;entity_dic -->
<g id="edge5" class="edge">
<title>entity_dic_txt&#45;&gt;entity_dic</title>
<path fill="none" stroke="black" d="M327.17,-72.05C321.15,-63.63 313.76,-53.28 307.11,-43.97"/>
<polygon fill="black" stroke="black" points="309.93,-41.89 301.27,-35.79 304.23,-45.96 309.93,-41.89"/>
</g>
<!-- entity_dic_txt&#45;&gt;lang_lst -->
<g id="edge6" class="edge">
<title>entity_dic_txt&#45;&gt;lang_lst</title>
<path fill="none" stroke="black" d="M390.67,-76.98C400.77,-75.01 411.32,-73.21 421.27,-72 686.23,-39.72 1529.16,-23.7 1756.38,-19.9"/>
<polygon fill="black" stroke="black" points="1756.48,-23.4 1766.42,-19.74 1756.36,-16.4 1756.48,-23.4"/>
</g>
<!-- entity_gen -->
<g id="node5" class="node">
<title>entity_gen</title>
<ellipse fill="none" stroke="black" cx="97.27" cy="-90" rx="59.59" ry="18"/>
<text text-anchor="middle" x="97.27" y="-86.3" font-family="Times,serif" font-size="14.00">entity_gen</text>
</g>
<!-- entity_gen&#45;&gt;entity_dic -->
<g id="edge7" class="edge">
<title>entity_gen&#45;&gt;entity_dic</title>
<path fill="none" stroke="black" d="M133.84,-75.67C165.23,-64.22 210.6,-47.68 244.23,-35.42"/>
<polygon fill="black" stroke="black" points="245.62,-38.64 253.82,-31.93 243.22,-32.06 245.62,-38.64"/>
</g>
<!-- entity_gen_attr -->
<g id="node6" class="node">
<title>entity_gen_attr</title>
<ellipse fill="none" stroke="black" cx="97.27" cy="-162" rx="81.49" ry="18"/>
<text text-anchor="middle" x="97.27" y="-158.3" font-family="Times,serif" font-size="14.00">entity_gen_attr</text>
</g>
<!-- entity_gen_attr&#45;&gt;entity_attr -->
<g id="edge9" class="edge">
<title>entity_gen_attr&#45;&gt;entity_attr</title>
<path fill="none" stroke="black" d="M156.28,-149.56C166.6,-147.64 177.24,-145.72 187.27,-144 290.99,-126.23 318.09,-128.61 421.27,-108 426.29,-107 431.49,-105.88 436.68,-104.7"/>
<polygon fill="black" stroke="black" points="437.66,-108.06 446.6,-102.38 436.07,-101.25 437.66,-108.06"/>
</g>
<!-- entity_gen_attr&#45;&gt;entity_gen -->
<g id="edge8" class="edge">
<title>entity_gen_attr&#45;&gt;entity_gen</title>
<path fill="none" stroke="black" d="M97.27,-143.7C97.27,-135.98 97.27,-126.71 97.27,-118.11"/>
<polygon fill="black" stroke="black" points="100.77,-118.1 97.27,-108.1 93.77,-118.1 100.77,-118.1"/>
</g>
<!-- group_lst -->
<g id="node7" class="node">
<title>group_lst</title>
<ellipse fill="none" stroke="black" cx="1266.27" cy="-162" rx="53.89" ry="18"/>
<text text-anchor="middle" x="1266.27" y="-158.3" font-family="Times,serif" font-size="14.00">group_lst</text>
</g>
<!-- model_dic -->
<g id="node13" class="node">
<title>model_dic</title>
<ellipse fill="none" stroke="black" cx="1099.27" cy="-90" rx="57.39" ry="18"/>
<text text-anchor="middle" x="1099.27" y="-86.3" font-family="Times,serif" font-size="14.00">model_dic</text>
</g>
<!-- group_lst&#45;&gt;model_dic -->
<g id="edge10" class="edge">
<title>group_lst&#45;&gt;model_dic</title>
<path fill="none" stroke="black" d="M1234.07,-147.5C1207.76,-136.47 1170.35,-120.79 1141.62,-108.75"/>
<polygon fill="black" stroke="black" points="1142.81,-105.45 1132.23,-104.81 1140.1,-111.91 1142.81,-105.45"/>
</g>
<!-- group_pc -->
<g id="node8" class="node">
<title>group_pc</title>
<ellipse fill="none" stroke="black" cx="1333.27" cy="-234" rx="53.09" ry="18"/>
<text text-anchor="middle" x="1333.27" y="-230.3" font-family="Times,serif" font-size="14.00">group_pc</text>
</g>
<!-- group_pc&#45;&gt;group_lst -->
<g id="edge11" class="edge">
<title>group_pc&#45;&gt;group_lst</title>
<path fill="none" stroke="black" d="M1317.73,-216.76C1309.32,-207.97 1298.75,-196.93 1289.38,-187.14"/>
<polygon fill="black" stroke="black" points="1291.64,-184.44 1282.19,-179.63 1286.58,-189.28 1291.64,-184.44"/>
</g>
<!-- group_txt -->
<g id="node9" class="node">
<title>group_txt</title>
<ellipse fill="none" stroke="black" cx="1460.27" cy="-234" rx="55.79" ry="18"/>
<text text-anchor="middle" x="1460.27" y="-230.3" font-family="Times,serif" font-size="14.00">group_txt</text>
</g>
<!-- group_txt&#45;&gt;group_lst -->
<g id="edge13" class="edge">
<title>group_txt&#45;&gt;group_lst</title>
<path fill="none" stroke="black" d="M1424.24,-220C1392.32,-208.48 1345.6,-191.62 1311.25,-179.23"/>
<polygon fill="black" stroke="black" points="1312.06,-175.8 1301.46,-175.7 1309.68,-182.38 1312.06,-175.8"/>
</g>
<!-- group_txt&#45;&gt;lang_lst -->
<g id="edge12" class="edge">
<title>group_txt&#45;&gt;lang_lst</title>
<path fill="none" stroke="black" d="M1422.89,-220.62C1404.14,-212.29 1383.15,-199.25 1372.27,-180 1348.66,-138.21 1340.42,-107.91 1372.27,-72 1397.4,-43.68 1643.46,-27.62 1756.73,-21.68"/>
<polygon fill="black" stroke="black" points="1757.13,-25.16 1766.94,-21.15 1756.77,-18.17 1757.13,-25.16"/>
</g>
<!-- id_lst -->
<g id="node10" class="node">
<title>id_lst</title>
<ellipse fill="none" stroke="black" cx="3268.27" cy="-378" rx="36" ry="18"/>
<text text-anchor="middle" x="3268.27" y="-374.3" font-family="Times,serif" font-size="14.00">id_lst</text>
</g>
<!-- lang_word -->
<g id="node12" class="node">
<title>lang_word</title>
<ellipse fill="none" stroke="black" cx="1918.27" cy="-90" rx="58.49" ry="18"/>
<text text-anchor="middle" x="1918.27" y="-86.3" font-family="Times,serif" font-size="14.00">lang_word</text>
</g>
<!-- lang_word&#45;&gt;lang_lst -->
<g id="edge14" class="edge">
<title>lang_word&#45;&gt;lang_lst</title>
<path fill="none" stroke="black" d="M1894.97,-73.46C1880.09,-63.54 1860.61,-50.56 1844.41,-39.75"/>
<polygon fill="black" stroke="black" points="1846.05,-36.65 1835.79,-34.01 1842.17,-42.47 1846.05,-36.65"/>
</g>
<!-- model_dic&#45;&gt;lang_lst -->
<g id="edge15" class="edge">
<title>model_dic&#45;&gt;lang_lst</title>
<path fill="none" stroke="black" d="M1141.49,-77.77C1150.91,-75.58 1160.89,-73.5 1170.27,-72 1385.05,-37.64 1643.97,-24.91 1756.48,-20.77"/>
<polygon fill="black" stroke="black" points="1756.72,-24.26 1766.58,-20.4 1756.47,-17.27 1756.72,-24.26"/>
</g>
<!-- model_dic_txt -->
<g id="node14" class="node">
<title>model_dic_txt</title>
<ellipse fill="none" stroke="black" cx="639.27" cy="-162" rx="74.99" ry="18"/>
<text text-anchor="middle" x="639.27" y="-158.3" font-family="Times,serif" font-size="14.00">model_dic_txt</text>
</g>
<!-- model_dic_txt&#45;&gt;lang_lst -->
<g id="edge17" class="edge">
<title>model_dic_txt&#45;&gt;lang_lst</title>
<path fill="none" stroke="black" d="M673.21,-145.79C721.45,-124.97 813.12,-88.32 895.27,-72 1061.38,-39 1582.7,-24.29 1756.36,-20.23"/>
<polygon fill="black" stroke="black" points="1756.64,-23.72 1766.56,-19.99 1756.48,-16.72 1756.64,-23.72"/>
</g>
<!-- model_dic_txt&#45;&gt;model_dic -->
<g id="edge16" class="edge">
<title>model_dic_txt&#45;&gt;model_dic</title>
<path fill="none" stroke="black" d="M693.41,-149.55C703.32,-147.59 713.6,-145.66 723.27,-144 833.11,-125.16 961.85,-108.09 1036.62,-98.67"/>
<polygon fill="black" stroke="black" points="1037.32,-102.11 1046.81,-97.39 1036.45,-95.16 1037.32,-102.11"/>
</g>
<!-- model_entity_dic -->
<g id="node15" class="node">
<title>model_entity_dic</title>
<ellipse fill="none" stroke="black" cx="285.27" cy="-162" rx="89.08" ry="18"/>
<text text-anchor="middle" x="285.27" y="-158.3" font-family="Times,serif" font-size="14.00">model_entity_dic</text>
</g>
<!-- model_entity_dic&#45;&gt;entity_dic -->
<g id="edge18" class="edge">
<title>model_entity_dic&#45;&gt;entity_dic</title>
<path fill="none" stroke="black" d="M273.39,-143.72C267.26,-133.76 260.43,-120.73 257.27,-108 253.42,-92.47 252.98,-87.41 257.27,-72 259.98,-62.27 265.02,-52.54 270.31,-44.12"/>
<polygon fill="black" stroke="black" points="273.38,-45.81 276.04,-35.56 267.57,-41.92 273.38,-45.81"/>
</g>
<!-- model_entity_dic&#45;&gt;model_dic -->
<g id="edge19" class="edge">
<title>model_entity_dic&#45;&gt;model_dic</title>
<path fill="none" stroke="black" d="M348.14,-149.16C359.79,-147.23 371.88,-145.41 383.27,-144 621.22,-114.63 905.8,-99.47 1032.61,-93.75"/>
<polygon fill="black" stroke="black" points="1033.1,-97.24 1042.93,-93.29 1032.78,-90.24 1033.1,-97.24"/>
</g>
<!-- model_parameter_dic -->
<g id="node16" class="node">
<title>model_parameter_dic</title>
<ellipse fill="none" stroke="black" cx="1932.27" cy="-162" rx="110.48" ry="18"/>
<text text-anchor="middle" x="1932.27" y="-158.3" font-family="Times,serif" font-size="14.00">model_parameter_dic</text>
</g>
<!-- model_parameter_dic&#45;&gt;model_dic -->
<g id="edge21" class="edge">
<title>model_parameter_dic&#45;&gt;model_dic</title>
<path fill="none" stroke="black" d="M1844.3,-151.01C1821.81,-148.58 1797.66,-146.09 1775.27,-144 1551.48,-123.11 1285.47,-103.9 1164.71,-95.48"/>
<polygon fill="black" stroke="black" points="1164.74,-91.98 1154.53,-94.78 1164.26,-98.96 1164.74,-91.98"/>
</g>
<!-- parameter_dic -->
<g id="node21" class="node">
<title>parameter_dic</title>
<ellipse fill="none" stroke="black" cx="2147.27" cy="-90" rx="77.19" ry="18"/>
<text text-anchor="middle" x="2147.27" y="-86.3" font-family="Times,serif" font-size="14.00">parameter_dic</text>
</g>
<!-- model_parameter_dic&#45;&gt;parameter_dic -->
<g id="edge20" class="edge">
<title>model_parameter_dic&#45;&gt;parameter_dic</title>
<path fill="none" stroke="black" d="M1979.46,-145.64C2013.47,-134.57 2059.38,-119.62 2094.59,-108.15"/>
<polygon fill="black" stroke="black" points="2095.79,-111.44 2104.22,-105.02 2093.63,-104.79 2095.79,-111.44"/>
</g>
<!-- model_parameter_import -->
<g id="node17" class="node">
<title>model_parameter_import</title>
<ellipse fill="none" stroke="black" cx="1961.27" cy="-234" rx="128.08" ry="18"/>
<text text-anchor="middle" x="1961.27" y="-230.3" font-family="Times,serif" font-size="14.00">model_parameter_import</text>
</g>
<!-- model_parameter_import&#45;&gt;model_parameter_dic -->
<g id="edge22" class="edge">
<title>model_parameter_import&#45;&gt;model_parameter_dic</title>
<path fill="none" stroke="black" d="M1954.11,-215.7C1950.84,-207.81 1946.9,-198.3 1943.27,-189.55"/>
<polygon fill="black" stroke="black" points="1946.42,-188 1939.36,-180.1 1939.95,-190.68 1946.42,-188"/>
</g>
<!-- model_table_dic -->
<g id="node18" class="node">
<title>model_table_dic</title>
<ellipse fill="none" stroke="black" cx="1681.27" cy="-162" rx="85.29" ry="18"/>
<text text-anchor="middle" x="1681.27" y="-158.3" font-family="Times,serif" font-size="14.00">model_table_dic</text>
</g>
<!-- model_table_dic&#45;&gt;model_dic -->
<g id="edge24" class="edge">
<title>model_table_dic&#45;&gt;model_dic</title>
<path fill="none" stroke="black" d="M1620.45,-149.35C1609.43,-147.43 1598.03,-145.55 1587.27,-144 1436.27,-122.17 1257.79,-104.95 1164.13,-96.57"/>
<polygon fill="black" stroke="black" points="1164.23,-93.07 1153.96,-95.67 1163.61,-100.04 1164.23,-93.07"/>
</g>
<!-- table_dic -->
<g id="node38" class="node">
<title>table_dic</title>
<ellipse fill="none" stroke="black" cx="3255.27" cy="-18" rx="51.99" ry="18"/>
<text text-anchor="middle" x="3255.27" y="-14.3" font-family="Times,serif" font-size="14.00">table_dic</text>
</g>
<!-- model_table_dic&#45;&gt;table_dic -->
<g id="edge23" class="edge">
<title>model_table_dic&#45;&gt;table_dic</title>
<path fill="none" stroke="black" d="M1750.17,-151.29C1845.98,-137.63 2009.13,-113.77 2021.27,-108 2042.88,-97.73 2039.14,-81.06 2061.27,-72 2114.02,-50.41 2955.88,-26.83 3193.35,-20.59"/>
<polygon fill="black" stroke="black" points="3193.63,-24.08 3203.54,-20.32 3193.45,-17.09 3193.63,-24.08"/>
</g>
<!-- model_type_dic -->
<g id="node19" class="node">
<title>model_type_dic</title>
<ellipse fill="none" stroke="black" cx="1496.27" cy="-162" rx="81.79" ry="18"/>
<text text-anchor="middle" x="1496.27" y="-158.3" font-family="Times,serif" font-size="14.00">model_type_dic</text>
</g>
<!-- model_type_dic&#45;&gt;model_dic -->
<g id="edge26" class="edge">
<title>model_type_dic&#45;&gt;model_dic</title>
<path fill="none" stroke="black" d="M1434.24,-150.06C1358.74,-136.75 1232.18,-114.43 1158.14,-101.38"/>
<polygon fill="black" stroke="black" points="1158.51,-97.89 1148.05,-99.6 1157.29,-104.78 1158.51,-97.89"/>
</g>
<!-- model_type_dic&#45;&gt;type_dic -->
<g id="edge25" class="edge">
<title>model_type_dic&#45;&gt;type_dic</title>
<path fill="none" stroke="black" d="M1554.4,-149.3C1565.29,-147.34 1576.61,-145.48 1587.27,-144 1763.21,-119.66 1821.25,-176.12 1985.27,-108 2008.29,-98.44 2005.27,-81.6 2028.27,-72 2118.37,-34.41 2407.57,-23.26 2533.61,-20.14"/>
<polygon fill="black" stroke="black" points="2533.94,-23.63 2543.85,-19.89 2533.77,-16.63 2533.94,-23.63"/>
</g>
<!-- model_word -->
<g id="node20" class="node">
<title>model_word</title>
<ellipse fill="none" stroke="black" cx="799.27" cy="-162" rx="66.89" ry="18"/>
<text text-anchor="middle" x="799.27" y="-158.3" font-family="Times,serif" font-size="14.00">model_word</text>
</g>
<!-- model_word&#45;&gt;lang_lst -->
<g id="edge28" class="edge">
<title>model_word&#45;&gt;lang_lst</title>
<path fill="none" stroke="black" d="M824.99,-145.21C860.63,-124.23 927.72,-87.99 990.27,-72 1135.69,-34.84 1594.88,-23 1756.4,-19.93"/>
<polygon fill="black" stroke="black" points="1756.67,-23.42 1766.6,-19.74 1756.54,-16.43 1756.67,-23.42"/>
</g>
<!-- model_word&#45;&gt;model_dic -->
<g id="edge27" class="edge">
<title>model_word&#45;&gt;model_dic</title>
<path fill="none" stroke="black" d="M848.14,-149.6C902.18,-136.99 988.99,-116.73 1045.08,-103.65"/>
<polygon fill="black" stroke="black" points="1045.89,-107.05 1054.83,-101.37 1044.3,-100.23 1045.89,-107.05"/>
</g>
<!-- parameter_dic&#45;&gt;type_dic -->
<g id="edge29" class="edge">
<title>parameter_dic&#45;&gt;type_dic</title>
<path fill="none" stroke="black" d="M2209.76,-79.19C2297.44,-65.43 2455.56,-40.61 2538.73,-27.56"/>
<polygon fill="black" stroke="black" points="2539.4,-31 2548.74,-25.99 2538.32,-24.08 2539.4,-31"/>
</g>
<!-- parameter_dic_txt -->
<g id="node22" class="node">
<title>parameter_dic_txt</title>
<ellipse fill="none" stroke="black" cx="2155.27" cy="-162" rx="94.78" ry="18"/>
<text text-anchor="middle" x="2155.27" y="-158.3" font-family="Times,serif" font-size="14.00">parameter_dic_txt</text>
</g>
<!-- parameter_dic_txt&#45;&gt;lang_lst -->
<g id="edge31" class="edge">
<title>parameter_dic_txt&#45;&gt;lang_lst</title>
<path fill="none" stroke="black" d="M2086.96,-149.5C1998.03,-134.47 1853.6,-109.84 1851.27,-108 1832.1,-92.81 1822.44,-66.1 1817.68,-45.9"/>
<polygon fill="black" stroke="black" points="1821.09,-45.09 1815.61,-36.02 1814.24,-46.52 1821.09,-45.09"/>
</g>
<!-- parameter_dic_txt&#45;&gt;parameter_dic -->
<g id="edge30" class="edge">
<title>parameter_dic_txt&#45;&gt;parameter_dic</title>
<path fill="none" stroke="black" d="M2153.3,-143.7C2152.42,-135.98 2151.36,-126.71 2150.37,-118.11"/>
<polygon fill="black" stroke="black" points="2153.84,-117.64 2149.23,-108.1 2146.89,-118.44 2153.84,-117.64"/>
</g>
<!-- parameter_dims -->
<g id="node23" class="node">
<title>parameter_dims</title>
<ellipse fill="none" stroke="black" cx="2468.27" cy="-162" rx="86.38" ry="18"/>
<text text-anchor="middle" x="2468.27" y="-158.3" font-family="Times,serif" font-size="14.00">parameter_dims</text>
</g>
<!-- parameter_dims&#45;&gt;parameter_dic -->
<g id="edge32" class="edge">
<title>parameter_dims&#45;&gt;parameter_dic</title>
<path fill="none" stroke="black" d="M2410.89,-148.49C2354.89,-136.27 2269.84,-117.73 2211.59,-105.02"/>
<polygon fill="black" stroke="black" points="2212.27,-101.59 2201.76,-102.88 2210.78,-108.43 2212.27,-101.59"/>
</g>
<!-- parameter_dims&#45;&gt;type_dic -->
<g id="edge33" class="edge">
<title>parameter_dims&#45;&gt;type_dic</title>
<path fill="none" stroke="black" d="M2538.26,-151.36C2558.56,-148.75 2580.78,-146.08 2601.27,-144 2654.48,-138.61 3044.9,-147.21 3081.27,-108 3092.16,-96.27 3091.96,-83.91 3081.27,-72 3053.08,-40.57 2776.08,-26.04 2652.4,-21.08"/>
<polygon fill="black" stroke="black" points="2652.47,-17.58 2642.34,-20.68 2652.19,-24.58 2652.47,-17.58"/>
</g>
<!-- parameter_dims_txt -->
<g id="node24" class="node">
<title>parameter_dims_txt</title>
<ellipse fill="none" stroke="black" cx="2604.27" cy="-234" rx="103.98" ry="18"/>
<text text-anchor="middle" x="2604.27" y="-230.3" font-family="Times,serif" font-size="14.00">parameter_dims_txt</text>
</g>
<!-- parameter_dims_txt&#45;&gt;lang_lst -->
<g id="edge35" class="edge">
<title>parameter_dims_txt&#45;&gt;lang_lst</title>
<path fill="none" stroke="black" d="M2601.49,-215.75C2597.18,-195.09 2586.78,-161.14 2563.27,-144 2455.82,-65.68 2384.54,-168.78 2266.27,-108 2246.97,-98.08 2252.55,-81.97 2233.27,-72 2171.17,-39.89 1969.38,-26.23 1869.84,-21.34"/>
<polygon fill="black" stroke="black" points="1869.83,-17.83 1859.67,-20.85 1869.49,-24.82 1869.83,-17.83"/>
</g>
<!-- parameter_dims_txt&#45;&gt;parameter_dims -->
<g id="edge34" class="edge">
<title>parameter_dims_txt&#45;&gt;parameter_dims</title>
<path fill="none" stroke="black" d="M2572.73,-216.76C2553.54,-206.89 2528.85,-194.18 2508.3,-183.6"/>
<polygon fill="black" stroke="black" points="2509.67,-180.37 2499.18,-178.91 2506.47,-186.59 2509.67,-180.37"/>
</g>
<!-- profile_lst -->
<g id="node25" class="node">
<title>profile_lst</title>
<ellipse fill="none" stroke="black" cx="3545.27" cy="-306" rx="56.59" ry="18"/>
<text text-anchor="middle" x="3545.27" y="-302.3" font-family="Times,serif" font-size="14.00">profile_lst</text>
</g>
<!-- profile_option -->
<g id="node26" class="node">
<title>profile_option</title>
<ellipse fill="none" stroke="black" cx="3545.27" cy="-378" rx="74.19" ry="18"/>
<text text-anchor="middle" x="3545.27" y="-374.3" font-family="Times,serif" font-size="14.00">profile_option</text>
</g>
<!-- profile_option&#45;&gt;profile_lst -->
<g id="edge36" class="edge">
<title>profile_option&#45;&gt;profile_lst</title>
<path fill="none" stroke="black" d="M3545.27,-359.7C3545.27,-351.98 3545.27,-342.71 3545.27,-334.11"/>
<polygon fill="black" stroke="black" points="3548.77,-334.1 3545.27,-324.1 3541.77,-334.1 3548.77,-334.1"/>
</g>
<!-- run_entity -->
<g id="node27" class="node">
<title>run_entity</title>
<ellipse fill="none" stroke="black" cx="651.27" cy="-234" rx="58.49" ry="18"/>
<text text-anchor="middle" x="651.27" y="-230.3" font-family="Times,serif" font-size="14.00">run_entity</text>
</g>
<!-- run_entity&#45;&gt;entity_gen -->
<g id="edge38" class="edge">
<title>run_entity&#45;&gt;entity_gen</title>
<path fill="none" stroke="black" d="M609.44,-221.27C600.84,-219.22 591.81,-217.32 583.27,-216 519.91,-206.18 51.18,-226.74 7.27,-180 -3.68,-168.34 -0.67,-157.89 7.27,-144 16.38,-128.08 32.34,-116.46 48.31,-108.24"/>
<polygon fill="black" stroke="black" points="50.15,-111.24 57.67,-103.78 47.14,-104.92 50.15,-111.24"/>
</g>
<!-- run_lst -->
<g id="node28" class="node">
<title>run_lst</title>
<ellipse fill="none" stroke="black" cx="1113.27" cy="-162" rx="42.79" ry="18"/>
<text text-anchor="middle" x="1113.27" y="-158.3" font-family="Times,serif" font-size="14.00">run_lst</text>
</g>
<!-- run_entity&#45;&gt;run_lst -->
<g id="edge37" class="edge">
<title>run_entity&#45;&gt;run_lst</title>
<path fill="none" stroke="black" d="M693.26,-221.46C701.51,-219.45 710.13,-217.51 718.27,-216 850.3,-191.44 885.46,-199.84 1018.27,-180 1033.49,-177.73 1050.01,-174.9 1064.94,-172.2"/>
<polygon fill="black" stroke="black" points="1065.78,-175.61 1074.99,-170.37 1064.53,-168.72 1065.78,-175.61"/>
</g>
<!-- run_lst&#45;&gt;model_dic -->
<g id="edge39" class="edge">
<title>run_lst&#45;&gt;model_dic</title>
<path fill="none" stroke="black" d="M1109.89,-144.05C1108.34,-136.35 1106.48,-127.03 1104.75,-118.36"/>
<polygon fill="black" stroke="black" points="1108.12,-117.39 1102.73,-108.28 1101.26,-118.77 1108.12,-117.39"/>
</g>
<!-- run_option -->
<g id="node29" class="node">
<title>run_option</title>
<ellipse fill="none" stroke="black" cx="933.27" cy="-234" rx="60.39" ry="18"/>
<text text-anchor="middle" x="933.27" y="-230.3" font-family="Times,serif" font-size="14.00">run_option</text>
</g>
<!-- run_option&#45;&gt;run_lst -->
<g id="edge40" class="edge">
<title>run_option&#45;&gt;run_lst</title>
<path fill="none" stroke="black" d="M968.41,-219.34C998.63,-207.58 1042.21,-190.64 1073.67,-178.4"/>
<polygon fill="black" stroke="black" points="1074.96,-181.65 1083.01,-174.77 1072.43,-175.13 1074.96,-181.65"/>
</g>
<!-- run_parameter -->
<g id="node30" class="node">
<title>run_parameter</title>
<ellipse fill="none" stroke="black" cx="2402.27" cy="-234" rx="79.89" ry="18"/>
<text text-anchor="middle" x="2402.27" y="-230.3" font-family="Times,serif" font-size="14.00">run_parameter</text>
</g>
<!-- run_parameter&#45;&gt;parameter_dic -->
<g id="edge42" class="edge">
<title>run_parameter&#45;&gt;parameter_dic</title>
<path fill="none" stroke="black" d="M2392.89,-215.94C2380.93,-195.81 2358.42,-162.69 2330.27,-144 2310.61,-130.94 2256.01,-115.97 2211.52,-105.28"/>
<polygon fill="black" stroke="black" points="2212.16,-101.84 2201.62,-102.93 2210.54,-108.65 2212.16,-101.84"/>
</g>
<!-- run_parameter&#45;&gt;run_lst -->
<g id="edge41" class="edge">
<title>run_parameter&#45;&gt;run_lst</title>
<path fill="none" stroke="black" d="M2326.08,-228.41C2264.61,-224.78 2175.89,-219.73 2098.27,-216 1700.63,-196.89 1598.81,-225.07 1203.27,-180 1189.3,-178.41 1174.24,-175.89 1160.51,-173.27"/>
<polygon fill="black" stroke="black" points="1160.8,-169.76 1150.31,-171.26 1159.44,-176.63 1160.8,-169.76"/>
</g>
<!-- run_parameter_import -->
<g id="node31" class="node">
<title>run_parameter_import</title>
<ellipse fill="none" stroke="black" cx="2465.27" cy="-306" rx="115.88" ry="18"/>
<text text-anchor="middle" x="2465.27" y="-302.3" font-family="Times,serif" font-size="14.00">run_parameter_import</text>
</g>
<!-- run_parameter_import&#45;&gt;run_parameter -->
<g id="edge43" class="edge">
<title>run_parameter_import&#45;&gt;run_parameter</title>
<path fill="none" stroke="black" d="M2450.02,-288.05C2442.29,-279.46 2432.75,-268.86 2424.23,-259.4"/>
<polygon fill="black" stroke="black" points="2426.68,-256.88 2417.38,-251.79 2421.47,-261.56 2426.68,-256.88"/>
</g>
<!-- run_parameter_txt -->
<g id="node32" class="node">
<title>run_parameter_txt</title>
<ellipse fill="none" stroke="black" cx="1717.27" cy="-234" rx="97.48" ry="18"/>
<text text-anchor="middle" x="1717.27" y="-230.3" font-family="Times,serif" font-size="14.00">run_parameter_txt</text>
</g>
<!-- run_parameter_txt&#45;&gt;lang_lst -->
<g id="edge46" class="edge">
<title>run_parameter_txt&#45;&gt;lang_lst</title>
<path fill="none" stroke="black" d="M1741.38,-216.43C1753.28,-207.06 1766.85,-194.35 1775.27,-180 1800.21,-137.54 1808.79,-79.74 1811.74,-46.19"/>
<polygon fill="black" stroke="black" points="1815.23,-46.44 1812.51,-36.2 1808.25,-45.9 1815.23,-46.44"/>
</g>
<!-- run_parameter_txt&#45;&gt;parameter_dic -->
<g id="edge45" class="edge">
<title>run_parameter_txt&#45;&gt;parameter_dic</title>
<path fill="none" stroke="black" d="M1786.24,-221.26C1798.87,-219.34 1811.95,-217.49 1824.27,-216 1872.42,-210.19 2226.43,-215.68 2259.27,-180 2270.11,-168.23 2267.83,-157.52 2259.27,-144 2248.2,-126.51 2229.62,-114.68 2210.75,-106.72"/>
<polygon fill="black" stroke="black" points="2211.78,-103.37 2201.19,-103.02 2209.25,-109.9 2211.78,-103.37"/>
</g>
<!-- run_parameter_txt&#45;&gt;run_lst -->
<g id="edge44" class="edge">
<title>run_parameter_txt&#45;&gt;run_lst</title>
<path fill="none" stroke="black" d="M1632.23,-225.11C1508.22,-213.44 1283.78,-191.73 1203.27,-180 1189.48,-177.99 1174.58,-175.36 1160.95,-172.78"/>
<polygon fill="black" stroke="black" points="1161.3,-169.28 1150.81,-170.82 1159.97,-176.15 1161.3,-169.28"/>
</g>
<!-- run_progress -->
<g id="node33" class="node">
<title>run_progress</title>
<ellipse fill="none" stroke="black" cx="1084.27" cy="-234" rx="72.29" ry="18"/>
<text text-anchor="middle" x="1084.27" y="-230.3" font-family="Times,serif" font-size="14.00">run_progress</text>
</g>
<!-- run_progress&#45;&gt;run_lst -->
<g id="edge47" class="edge">
<title>run_progress&#45;&gt;run_lst</title>
<path fill="none" stroke="black" d="M1091.29,-216.05C1094.64,-207.97 1098.72,-198.12 1102.46,-189.11"/>
<polygon fill="black" stroke="black" points="1105.72,-190.37 1106.32,-179.79 1099.26,-187.69 1105.72,-190.37"/>
</g>
<!-- run_table -->
<g id="node34" class="node">
<title>run_table</title>
<ellipse fill="none" stroke="black" cx="3377.27" cy="-234" rx="54.69" ry="18"/>
<text text-anchor="middle" x="3377.27" y="-230.3" font-family="Times,serif" font-size="14.00">run_table</text>
</g>
<!-- run_table&#45;&gt;run_lst -->
<g id="edge48" class="edge">
<title>run_table&#45;&gt;run_lst</title>
<path fill="none" stroke="black" d="M3322.95,-231.56C3210.11,-228.59 2942.15,-221.57 2717.27,-216 2380.84,-207.67 1537.95,-215.35 1203.27,-180 1189.29,-178.52 1174.22,-176.04 1160.49,-173.42"/>
<polygon fill="black" stroke="black" points="1160.78,-169.91 1150.29,-171.4 1159.42,-176.77 1160.78,-169.91"/>
</g>
<!-- run_table&#45;&gt;table_dic -->
<g id="edge49" class="edge">
<title>run_table&#45;&gt;table_dic</title>
<path fill="none" stroke="black" d="M3407.42,-218.98C3462.49,-191.53 3569.62,-128.41 3523.27,-72 3497.63,-40.78 3387.42,-27.64 3316.56,-22.34"/>
<polygon fill="black" stroke="black" points="3316.63,-18.84 3306.41,-21.62 3316.13,-25.82 3316.63,-18.84"/>
</g>
<!-- run_txt -->
<g id="node35" class="node">
<title>run_txt</title>
<ellipse fill="none" stroke="black" cx="1218.27" cy="-234" rx="44.39" ry="18"/>
<text text-anchor="middle" x="1218.27" y="-230.3" font-family="Times,serif" font-size="14.00">run_txt</text>
</g>
<!-- run_txt&#45;&gt;lang_lst -->
<g id="edge51" class="edge">
<title>run_txt&#45;&gt;lang_lst</title>
<path fill="none" stroke="black" d="M1209.09,-216.27C1200.05,-197.33 1189.46,-166.22 1203.27,-144 1241.48,-82.56 1279.86,-92.41 1349.27,-72 1491.63,-30.15 1667.57,-21.05 1756.33,-19.26"/>
<polygon fill="black" stroke="black" points="1756.52,-22.76 1766.46,-19.08 1756.4,-15.76 1756.52,-22.76"/>
</g>
<!-- run_txt&#45;&gt;run_lst -->
<g id="edge50" class="edge">
<title>run_txt&#45;&gt;run_lst</title>
<path fill="none" stroke="black" d="M1196.26,-218.33C1181,-208.15 1160.48,-194.47 1143.67,-183.26"/>
<polygon fill="black" stroke="black" points="1145.52,-180.29 1135.26,-177.65 1141.64,-186.11 1145.52,-180.29"/>
</g>
<!-- table_acc -->
<g id="node36" class="node">
<title>table_acc</title>
<ellipse fill="none" stroke="black" cx="3322.27" cy="-90" rx="53.89" ry="18"/>
<text text-anchor="middle" x="3322.27" y="-86.3" font-family="Times,serif" font-size="14.00">table_acc</text>
</g>
<!-- table_acc&#45;&gt;table_dic -->
<g id="edge52" class="edge">
<title>table_acc&#45;&gt;table_dic</title>
<path fill="none" stroke="black" d="M3306.4,-72.41C3297.97,-63.61 3287.46,-52.63 3278.17,-42.92"/>
<polygon fill="black" stroke="black" points="3280.48,-40.27 3271.04,-35.47 3275.42,-45.11 3280.48,-40.27"/>
</g>
<!-- table_acc_txt -->
<g id="node37" class="node">
<title>table_acc_txt</title>
<ellipse fill="none" stroke="black" cx="2857.27" cy="-162" rx="71.49" ry="18"/>
<text text-anchor="middle" x="2857.27" y="-158.3" font-family="Times,serif" font-size="14.00">table_acc_txt</text>
</g>
<!-- table_acc_txt&#45;&gt;lang_lst -->
<g id="edge54" class="edge">
<title>table_acc_txt&#45;&gt;lang_lst</title>
<path fill="none" stroke="black" d="M2806.66,-149.25C2796.95,-147.28 2786.83,-145.41 2777.27,-144 2589.75,-116.24 2529.42,-175.49 2352.27,-108 2327.35,-98.51 2329.08,-81.78 2304.27,-72 2226.34,-41.28 1981.32,-26.58 1869.69,-21.34"/>
<polygon fill="black" stroke="black" points="1869.78,-17.84 1859.63,-20.88 1869.46,-24.83 1869.78,-17.84"/>
</g>
<!-- table_acc_txt&#45;&gt;table_acc -->
<g id="edge53" class="edge">
<title>table_acc_txt&#45;&gt;table_acc</title>
<path fill="none" stroke="black" d="M2908.99,-149.38C2918.69,-147.42 2928.77,-145.53 2938.27,-144 3080.02,-121.23 3118.23,-134.78 3259.27,-108 3263.9,-107.12 3268.68,-106.08 3273.45,-104.95"/>
<polygon fill="black" stroke="black" points="3274.31,-108.35 3283.17,-102.54 3272.62,-101.55 3274.31,-108.35"/>
</g>
<!-- table_dic_txt -->
<g id="node39" class="node">
<title>table_dic_txt</title>
<ellipse fill="none" stroke="black" cx="3002.27" cy="-90" rx="69.59" ry="18"/>
<text text-anchor="middle" x="3002.27" y="-86.3" font-family="Times,serif" font-size="14.00">table_dic_txt</text>
</g>
<!-- table_dic_txt&#45;&gt;lang_lst -->
<g id="edge56" class="edge">
<title>table_dic_txt&#45;&gt;lang_lst</title>
<path fill="none" stroke="black" d="M2953.19,-77.13C2943.33,-75.12 2933.01,-73.27 2923.27,-72 2522.91,-19.73 2035.32,-17.5 1870.69,-18.43"/>
<polygon fill="black" stroke="black" points="1870.29,-14.93 1860.31,-18.49 1870.34,-21.93 1870.29,-14.93"/>
</g>
<!-- table_dic_txt&#45;&gt;table_dic -->
<g id="edge55" class="edge">
<title>table_dic_txt&#45;&gt;table_dic</title>
<path fill="none" stroke="black" d="M3048.09,-76.32C3092.8,-63.95 3160.58,-45.2 3206.33,-32.54"/>
<polygon fill="black" stroke="black" points="3207.32,-35.9 3216.03,-29.86 3205.45,-29.15 3207.32,-35.9"/>
</g>
<!-- table_dims -->
<g id="node40" class="node">
<title>table_dims</title>
<ellipse fill="none" stroke="black" cx="3189.27" cy="-90" rx="61.19" ry="18"/>
<text text-anchor="middle" x="3189.27" y="-86.3" font-family="Times,serif" font-size="14.00">table_dims</text>
</g>
<!-- table_dims&#45;&gt;table_dic -->
<g id="edge57" class="edge">
<title>table_dims&#45;&gt;table_dic</title>
<path fill="none" stroke="black" d="M3204.92,-72.41C3213.22,-63.61 3223.57,-52.63 3232.72,-42.92"/>
<polygon fill="black" stroke="black" points="3235.43,-45.15 3239.75,-35.47 3230.34,-40.34 3235.43,-45.15"/>
</g>
<!-- table_dims&#45;&gt;type_dic -->
<g id="edge58" class="edge">
<title>table_dims&#45;&gt;type_dic</title>
<path fill="none" stroke="black" d="M3143.84,-77.77C3134.12,-75.63 3123.89,-73.57 3114.27,-72 2947.62,-44.74 2748.55,-29.14 2651.82,-22.63"/>
<polygon fill="black" stroke="black" points="2651.87,-19.12 2641.66,-21.95 2651.4,-26.11 2651.87,-19.12"/>
</g>
<!-- table_dims_txt -->
<g id="node41" class="node">
<title>table_dims_txt</title>
<ellipse fill="none" stroke="black" cx="2689.27" cy="-162" rx="78.79" ry="18"/>
<text text-anchor="middle" x="2689.27" y="-158.3" font-family="Times,serif" font-size="14.00">table_dims_txt</text>
</g>
<!-- table_dims_txt&#45;&gt;lang_lst -->
<g id="edge60" class="edge">
<title>table_dims_txt&#45;&gt;lang_lst</title>
<path fill="none" stroke="black" d="M2630.82,-149.82C2619.38,-147.77 2607.47,-145.74 2596.27,-144 2471.42,-124.63 2431.36,-155.48 2314.27,-108 2289.56,-97.98 2291.04,-81.89 2266.27,-72 2195.38,-43.68 1974.27,-27.95 1869.46,-21.92"/>
<polygon fill="black" stroke="black" points="1869.57,-18.42 1859.39,-21.35 1869.17,-25.41 1869.57,-18.42"/>
</g>
<!-- table_dims_txt&#45;&gt;table_dims -->
<g id="edge59" class="edge">
<title>table_dims_txt&#45;&gt;table_dims</title>
<path fill="none" stroke="black" d="M2745.49,-149.41C2756.02,-147.44 2766.96,-145.54 2777.27,-144 2926.24,-121.69 2965.68,-132.69 3114.27,-108 3120.58,-106.95 3127.16,-105.7 3133.68,-104.36"/>
<polygon fill="black" stroke="black" points="3134.78,-107.7 3143.83,-102.19 3133.32,-100.86 3134.78,-107.7"/>
</g>
<!-- table_expr -->
<g id="node42" class="node">
<title>table_expr</title>
<ellipse fill="none" stroke="black" cx="3454.27" cy="-90" rx="59.59" ry="18"/>
<text text-anchor="middle" x="3454.27" y="-86.3" font-family="Times,serif" font-size="14.00">table_expr</text>
</g>
<!-- table_expr&#45;&gt;table_dic -->
<g id="edge61" class="edge">
<title>table_expr&#45;&gt;table_dic</title>
<path fill="none" stroke="black" d="M3416.84,-75.83C3383.71,-64.18 3335.27,-47.14 3300.08,-34.76"/>
<polygon fill="black" stroke="black" points="3301.13,-31.42 3290.53,-31.4 3298.8,-38.02 3301.13,-31.42"/>
</g>
<!-- table_expr_txt -->
<g id="node43" class="node">
<title>table_expr_txt</title>
<ellipse fill="none" stroke="black" cx="3024.27" cy="-162" rx="77.19" ry="18"/>
<text text-anchor="middle" x="3024.27" y="-158.3" font-family="Times,serif" font-size="14.00">table_expr_txt</text>
</g>
<!-- table_expr_txt&#45;&gt;lang_lst -->
<g id="edge63" class="edge">
<title>table_expr_txt&#45;&gt;lang_lst</title>
<path fill="none" stroke="black" d="M2969.68,-149.23C2958.98,-147.24 2947.8,-145.37 2937.27,-144 2816.47,-128.29 2504.51,-150.3 2390.27,-108 2365.27,-98.74 2367.12,-81.68 2342.27,-72 2257.34,-38.89 1988.5,-25.32 1870.15,-20.85"/>
<polygon fill="black" stroke="black" points="1869.98,-17.34 1859.85,-20.47 1869.72,-24.34 1869.98,-17.34"/>
</g>
<!-- table_expr_txt&#45;&gt;table_expr -->
<g id="edge62" class="edge">
<title>table_expr_txt&#45;&gt;table_expr</title>
<path fill="none" stroke="black" d="M3091.8,-153.05C3164.58,-144.02 3283.64,-127.93 3385.27,-108 3390.29,-107.02 3395.49,-105.91 3400.68,-104.73"/>
<polygon fill="black" stroke="black" points="3401.67,-108.1 3410.61,-102.43 3400.08,-101.28 3401.67,-108.1"/>
</g>
<!-- task_lst -->
<g id="node44" class="node">
<title>task_lst</title>
<ellipse fill="none" stroke="black" cx="930.27" cy="-162" rx="46.29" ry="18"/>
<text text-anchor="middle" x="930.27" y="-158.3" font-family="Times,serif" font-size="14.00">task_lst</text>
</g>
<!-- task_lst&#45;&gt;model_dic -->
<g id="edge64" class="edge">
<title>task_lst&#45;&gt;model_dic</title>
<path fill="none" stroke="black" d="M960.88,-148.32C987.66,-137.23 1026.83,-121.01 1056.67,-108.65"/>
<polygon fill="black" stroke="black" points="1058.11,-111.84 1066.01,-104.78 1055.43,-105.37 1058.11,-111.84"/>
</g>
<!-- task_run_lst -->
<g id="node45" class="node">
<title>task_run_lst</title>
<ellipse fill="none" stroke="black" cx="355.27" cy="-234" rx="66.89" ry="18"/>
<text text-anchor="middle" x="355.27" y="-230.3" font-family="Times,serif" font-size="14.00">task_run_lst</text>
</g>
<!-- task_run_lst&#45;&gt;task_lst -->
<g id="edge65" class="edge">
<title>task_run_lst&#45;&gt;task_lst</title>
<path fill="none" stroke="black" d="M404.36,-221.67C414.85,-219.54 425.89,-217.51 436.27,-216 630,-187.84 683.06,-217.13 875.27,-180 879.14,-179.25 883.11,-178.33 887.08,-177.31"/>
<polygon fill="black" stroke="black" points="888.13,-180.65 896.83,-174.61 886.26,-173.91 888.13,-180.65"/>
</g>
<!-- task_run_set -->
<g id="node46" class="node">
<title>task_run_set</title>
<ellipse fill="none" stroke="black" cx="355.27" cy="-306" rx="69.59" ry="18"/>
<text text-anchor="middle" x="355.27" y="-302.3" font-family="Times,serif" font-size="14.00">task_run_set</text>
</g>
<!-- task_run_set&#45;&gt;task_run_lst -->
<g id="edge66" class="edge">
<title>task_run_set&#45;&gt;task_run_lst</title>
<path fill="none" stroke="black" d="M355.27,-287.7C355.27,-279.98 355.27,-270.71 355.27,-262.11"/>
<polygon fill="black" stroke="black" points="358.77,-262.1 355.27,-252.1 351.77,-262.1 358.77,-262.1"/>
</g>
<!-- task_set -->
<g id="node47" class="node">
<title>task_set</title>
<ellipse fill="none" stroke="black" cx="641.27" cy="-306" rx="48.99" ry="18"/>
<text text-anchor="middle" x="641.27" y="-302.3" font-family="Times,serif" font-size="14.00">task_set</text>
</g>
<!-- task_set&#45;&gt;task_lst -->
<g id="edge67" class="edge">
<title>task_set&#45;&gt;task_lst</title>
<path fill="none" stroke="black" d="M596.9,-298.44C533.19,-287.29 427.79,-261.33 469.27,-216 499.85,-182.59 830.84,-188.74 875.27,-180 879.14,-179.24 883.11,-178.31 887.07,-177.29"/>
<polygon fill="black" stroke="black" points="888.13,-180.63 896.82,-174.57 886.25,-173.88 888.13,-180.63"/>
</g>
<!-- workset_lst -->
<g id="node53" class="node">
<title>workset_lst</title>
<ellipse fill="none" stroke="black" cx="791.27" cy="-234" rx="63.89" ry="18"/>
<text text-anchor="middle" x="791.27" y="-230.3" font-family="Times,serif" font-size="14.00">workset_lst</text>
</g>
<!-- task_set&#45;&gt;workset_lst -->
<g id="edge68" class="edge">
<title>task_set&#45;&gt;workset_lst</title>
<path fill="none" stroke="black" d="M670.2,-291.5C692.99,-280.86 725.07,-265.9 750.47,-254.04"/>
<polygon fill="black" stroke="black" points="752.27,-257.06 759.85,-249.66 749.31,-250.72 752.27,-257.06"/>
</g>
<!-- task_txt -->
<g id="node48" class="node">
<title>task_txt</title>
<ellipse fill="none" stroke="black" cx="526.27" cy="-234" rx="48.19" ry="18"/>
<text text-anchor="middle" x="526.27" y="-230.3" font-family="Times,serif" font-size="14.00">task_txt</text>
</g>
<!-- task_txt&#45;&gt;lang_lst -->
<g id="edge70" class="edge">
<title>task_txt&#45;&gt;lang_lst</title>
<path fill="none" stroke="black" d="M561.28,-221.55C568.8,-219.42 576.75,-217.43 584.27,-216 672.18,-199.34 912.51,-232.06 985.27,-180 1027.99,-149.43 990.23,-102.1 1033.27,-72 1092.11,-30.86 1586.45,-21.52 1756.26,-19.52"/>
<polygon fill="black" stroke="black" points="1756.54,-23.01 1766.5,-19.4 1756.46,-16.02 1756.54,-23.01"/>
</g>
<!-- task_txt&#45;&gt;task_lst -->
<g id="edge69" class="edge">
<title>task_txt&#45;&gt;task_lst</title>
<path fill="none" stroke="black" d="M561.63,-221.65C569.05,-219.55 576.88,-217.53 584.27,-216 711.89,-189.59 747.86,-207.35 875.27,-180 878.96,-179.21 882.75,-178.28 886.54,-177.28"/>
<polygon fill="black" stroke="black" points="887.82,-180.55 896.49,-174.47 885.91,-173.82 887.82,-180.55"/>
</g>
<!-- type_dic_txt -->
<g id="node50" class="node">
<title>type_dic_txt</title>
<ellipse fill="none" stroke="black" cx="2675.27" cy="-90" rx="66.89" ry="18"/>
<text text-anchor="middle" x="2675.27" y="-86.3" font-family="Times,serif" font-size="14.00">type_dic_txt</text>
</g>
<!-- type_dic_txt&#45;&gt;lang_lst -->
<g id="edge72" class="edge">
<title>type_dic_txt&#45;&gt;lang_lst</title>
<path fill="none" stroke="black" d="M2627.64,-77.18C2618.28,-75.19 2608.51,-73.34 2599.27,-72 2328.12,-32.77 2000.03,-22.48 1870.16,-19.86"/>
<polygon fill="black" stroke="black" points="1870.11,-16.36 1860.05,-19.67 1869.98,-23.36 1870.11,-16.36"/>
</g>
<!-- type_dic_txt&#45;&gt;type_dic -->
<g id="edge71" class="edge">
<title>type_dic_txt&#45;&gt;type_dic</title>
<path fill="none" stroke="black" d="M2655.84,-72.41C2644.99,-63.15 2631.32,-51.48 2619.53,-41.41"/>
<polygon fill="black" stroke="black" points="2621.6,-38.58 2611.72,-34.75 2617.06,-43.9 2621.6,-38.58"/>
</g>
<!-- type_enum_lst -->
<g id="node51" class="node">
<title>type_enum_lst</title>
<ellipse fill="none" stroke="black" cx="2837.27" cy="-90" rx="77.19" ry="18"/>
<text text-anchor="middle" x="2837.27" y="-86.3" font-family="Times,serif" font-size="14.00">type_enum_lst</text>
</g>
<!-- type_enum_lst&#45;&gt;type_dic -->
<g id="edge73" class="edge">
<title>type_enum_lst&#45;&gt;type_dic</title>
<path fill="none" stroke="black" d="M2790.52,-75.59C2747.51,-63.25 2684.04,-45.04 2640.79,-32.63"/>
<polygon fill="black" stroke="black" points="2641.65,-29.24 2631.07,-29.84 2639.72,-35.97 2641.65,-29.24"/>
</g>
<!-- type_enum_txt -->
<g id="node52" class="node">
<title>type_enum_txt</title>
<ellipse fill="none" stroke="black" cx="2511.27" cy="-90" rx="79.09" ry="18"/>
<text text-anchor="middle" x="2511.27" y="-86.3" font-family="Times,serif" font-size="14.00">type_enum_txt</text>
</g>
<!-- type_enum_txt&#45;&gt;lang_lst -->
<g id="edge75" class="edge">
<title>type_enum_txt&#45;&gt;lang_lst</title>
<path fill="none" stroke="black" d="M2453.36,-77.55C2441.77,-75.5 2429.66,-73.54 2418.27,-72 2217.29,-44.89 1976.79,-28.6 1869.61,-22.17"/>
<polygon fill="black" stroke="black" points="1869.54,-18.66 1859.35,-21.56 1869.13,-25.65 1869.54,-18.66"/>
</g>
<!-- type_enum_txt&#45;&gt;type_dic -->
<g id="edge74" class="edge">
<title>type_enum_txt&#45;&gt;type_dic</title>
<path fill="none" stroke="black" d="M2530.71,-72.41C2541.56,-63.15 2555.23,-51.48 2567.02,-41.41"/>
<polygon fill="black" stroke="black" points="2569.49,-43.9 2574.83,-34.75 2564.95,-38.58 2569.49,-43.9"/>
</g>
<!-- workset_lst&#45;&gt;model_dic -->
<g id="edge76" class="edge">
<title>workset_lst&#45;&gt;model_dic</title>
<path fill="none" stroke="black" d="M838.8,-221.93C905.28,-206.43 1018.03,-180.14 1018.27,-180 1045.11,-164.24 1068.14,-136.69 1082.71,-116.4"/>
<polygon fill="black" stroke="black" points="1085.76,-118.14 1088.6,-107.94 1080.02,-114.14 1085.76,-118.14"/>
</g>
<!-- workset_lst&#45;&gt;run_lst -->
<g id="edge77" class="edge">
<title>workset_lst&#45;&gt;run_lst</title>
<path fill="none" stroke="black" d="M838.33,-221.73C846.95,-219.75 855.87,-217.77 864.27,-216 949.24,-198.15 971.89,-200.43 1056.27,-180 1060.74,-178.92 1065.38,-177.7 1069.99,-176.42"/>
<polygon fill="black" stroke="black" points="1071.32,-179.68 1079.98,-173.57 1069.4,-172.95 1071.32,-179.68"/>
</g>
<!-- workset_parameter -->
<g id="node54" class="node">
<title>workset_parameter</title>
<ellipse fill="none" stroke="black" cx="2231.27" cy="-306" rx="100.98" ry="18"/>
<text text-anchor="middle" x="2231.27" y="-302.3" font-family="Times,serif" font-size="14.00">workset_parameter</text>
</g>
<!-- workset_parameter&#45;&gt;parameter_dic -->
<g id="edge79" class="edge">
<title>workset_parameter&#45;&gt;parameter_dic</title>
<path fill="none" stroke="black" d="M2244.66,-288.04C2267.4,-257.02 2308.25,-190.08 2277.27,-144 2263.89,-124.09 2241.58,-111.65 2219.18,-103.89"/>
<polygon fill="black" stroke="black" points="2220.19,-100.54 2209.6,-100.84 2218.07,-107.21 2220.19,-100.54"/>
</g>
<!-- workset_parameter&#45;&gt;workset_lst -->
<g id="edge78" class="edge">
<title>workset_parameter&#45;&gt;workset_lst</title>
<path fill="none" stroke="black" d="M2131.43,-303.59C1859.41,-299.36 1109.22,-284.96 864.27,-252 858.41,-251.21 852.32,-250.17 846.28,-248.98"/>
<polygon fill="black" stroke="black" points="846.7,-245.49 836.2,-246.87 845.27,-252.34 846.7,-245.49"/>
</g>
<!-- workset_parameter_txt -->
<g id="node55" class="node">
<title>workset_parameter_txt</title>
<ellipse fill="none" stroke="black" cx="2797.27" cy="-378" rx="118.08" ry="18"/>
<text text-anchor="middle" x="2797.27" y="-374.3" font-family="Times,serif" font-size="14.00">workset_parameter_txt</text>
</g>
<!-- workset_parameter_txt&#45;&gt;lang_lst -->
<g id="edge81" class="edge">
<title>workset_parameter_txt&#45;&gt;lang_lst</title>
<path fill="none" stroke="black" d="M2851.14,-361.91C2963.07,-328.12 3202.95,-241.66 3110.27,-144 3057.66,-88.55 2494.41,-135.97 2423.27,-108 2400.08,-98.88 2403.28,-81.59 2380.27,-72 2289.19,-34.01 1995.35,-23.04 1870.38,-20.05"/>
<polygon fill="black" stroke="black" points="1870.33,-16.55 1860.25,-19.82 1870.16,-23.55 1870.33,-16.55"/>
</g>
<!-- workset_parameter_txt&#45;&gt;workset_parameter -->
<g id="edge80" class="edge">
<title>workset_parameter_txt&#45;&gt;workset_parameter</title>
<path fill="none" stroke="black" d="M2702.61,-367.12C2610.09,-357.2 2465.32,-341 2340.27,-324 2331.59,-322.82 2322.52,-321.52 2313.49,-320.18"/>
<polygon fill="black" stroke="black" points="2313.74,-316.67 2303.33,-318.65 2312.7,-323.6 2313.74,-316.67"/>
</g>
<!-- workset_txt -->
<g id="node56" class="node">
<title>workset_txt</title>
<ellipse fill="none" stroke="black" cx="1234.27" cy="-306" rx="65.79" ry="18"/>
<text text-anchor="middle" x="1234.27" y="-302.3" font-family="Times,serif" font-size="14.00">workset_txt</text>
</g>
<!-- workset_txt&#45;&gt;lang_lst -->
<g id="edge83" class="edge">
<title>workset_txt&#45;&gt;lang_lst</title>
<path fill="none" stroke="black" d="M1298.9,-302.56C1375.7,-298.14 1497.02,-285.86 1525.27,-252 1535.52,-239.71 1534.83,-228.84 1525.27,-216 1492.04,-171.33 1438.51,-224.67 1405.27,-180 1395.72,-167.16 1395.76,-156.86 1405.27,-144 1448.02,-86.2 1660.46,-44.19 1760.72,-27.26"/>
<polygon fill="black" stroke="black" points="1761.36,-30.7 1770.64,-25.6 1760.2,-23.79 1761.36,-30.7"/>
</g>
<!-- workset_txt&#45;&gt;workset_lst -->
<g id="edge82" class="edge">
<title>workset_txt&#45;&gt;workset_lst</title>
<path fill="none" stroke="black" d="M1175.06,-298.12C1101.78,-289.24 973.33,-272.47 864.27,-252 858.84,-250.98 853.2,-249.83 847.56,-248.62"/>
<polygon fill="black" stroke="black" points="848.01,-245.13 837.49,-246.4 846.5,-251.97 848.01,-245.13"/>
</g>
</g>
</svg>
